<svg width="45" height="50" viewBox="0 0 45 50" fill="none" xmlns="http://www.w3.org/2000/svg">
<path d="M24.9569 0.644714C30.902 1.00999 36.6483 2.07746 42.4772 3.24031C43.4624 6.41843 42.7034 9.00975 42.031 12.1627C41.2372 16.2981 40.9332 18.7435 43.1159 22.4614C45.6292 28.3484 43.7599 35.8022 41.5114 41.4266C40.1382 44.2901 38.5277 46.7621 36.6371 49.3122C32.5685 47.385 28.4999 45.4578 24.308 43.4721C24.308 40.0202 24.485 37.1009 24.9569 33.7386C24.5286 33.7386 24.1003 33.7386 23.6591 33.7386C22.9207 34.5022 22.2088 35.2913 21.5096 36.0909C18.2537 39.4607 14.3803 41.1973 10.0322 42.8232C9.6039 42.8232 9.17562 42.8232 8.73437 42.8232C7.42744 40.6114 6.1331 38.3925 4.84097 36.172C4.46958 35.5438 4.09818 34.9156 3.71553 34.2684C3.36422 33.6619 3.0129 33.0555 2.65093 32.4307C2.32471 31.8734 1.99848 31.3161 1.66237 30.7419C0.947571 29.1963 0.947571 29.1963 0.947571 26.6007C2.44766 24.046 4.28522 21.7695 6.13877 19.4628C6.43321 19.0638 6.72765 18.6648 7.03101 18.2537C7.84213 17.3539 7.84213 17.3539 10.0322 16.2183C14.0074 16.0976 17.8669 16.5122 21.7124 17.5161C21.7906 16.9224 21.7906 16.9224 21.8705 16.3167C22.1108 14.5123 22.3577 12.7089 22.6046 10.9054C22.7276 9.97132 22.7276 9.97132 22.853 9.01831C22.9367 8.41396 23.0203 7.80961 23.1065 7.18695C23.1812 6.63304 23.256 6.07914 23.333 5.50846C23.682 3.77519 24.2544 2.26383 24.9569 0.644714ZM19.7657 25.9518C19.3374 26.8084 18.9091 27.6649 18.4679 28.5474C19.1103 28.1191 19.7527 27.6909 20.4146 27.2496C20.2004 26.8213 19.9863 26.3931 19.7657 25.9518Z" fill="#C86363"/>
</svg>
