<svg width="9" height="33" viewBox="0 0 9 33" fill="none" xmlns="http://www.w3.org/2000/svg">
<path d="M5.53052 0.240295C6.38706 0.454432 7.24361 0.668569 8.12612 0.889196C7.10087 10.5481 5.35167 20.0327 2.93491 29.4408C2.2925 29.4408 1.65009 29.4408 0.988215 29.4408C0.988215 30.5115 0.988215 31.5822 0.988215 32.6853C0.774078 32.6853 0.559941 32.6853 0.339315 32.6853C0.177089 28.3863 0.177089 28.3863 1.63711 26.1963C2.01508 24.4558 2.33589 22.7436 2.61553 20.9874C2.74241 20.223 2.74241 20.223 2.87184 19.4431C3.04962 18.3662 3.2251 17.289 3.39846 16.2114C3.6637 14.5643 3.93618 12.9186 4.2099 11.2729C4.38185 10.2257 4.55338 9.17838 4.72446 8.13102C4.8461 7.39381 4.8461 7.39381 4.97019 6.6417C5.31821 4.46556 5.53052 2.4515 5.53052 0.240295Z" fill="#3F3F64"/>
</svg>
