<svg width="11" height="11" viewBox="0 0 11 11" fill="none" xmlns="http://www.w3.org/2000/svg">
<path d="M3.59655 0.57283C4.97546 0.816168 4.97546 0.816168 6.19215 1.22173C6.19215 2.50655 6.19215 3.79137 6.19215 5.11513C7.47697 5.11513 8.76179 5.11513 10.0855 5.11513C10.2997 5.75754 10.5138 6.39995 10.7344 7.06183C10.3656 7.07103 9.99668 7.08023 9.61662 7.08971C5.55769 7.34043 3.47479 8.36402 0.352051 10.9552C0.352051 9.028 0.352051 7.10077 0.352051 5.11513C0.994462 5.11513 1.63687 5.11513 2.29875 5.11513C2.2586 4.35227 2.2586 4.35227 2.21764 3.57399C2.29875 1.87063 2.29875 1.87063 3.59655 0.57283Z" fill="#FCF7E9"/>
</svg>
