<svg width="15" height="23" viewBox="0 0 15 23" fill="none" xmlns="http://www.w3.org/2000/svg">
<path d="M11.0265 0.0119324C11.8095 0.0320077 11.8095 0.0320077 12.6082 0.0524886C13.4274 1.6908 13.3211 2.85055 13.2977 4.6759C13.2918 5.26645 13.286 5.857 13.2799 6.46545C13.2724 6.91881 13.2649 7.37218 13.2571 7.83929C13.6854 7.83929 14.1137 7.83929 14.5549 7.83929C13.6854 9.79041 12.739 11.0822 11.1887 12.5438C9.0661 14.6001 7.12542 16.7625 5.19655 18.9999C4.045 20.3139 2.83722 21.5541 1.57691 22.764C-0.011919 20.3808 -0.183557 18.3965 0.279107 15.6261C1.45524 14.0038 1.45524 14.0038 2.87471 13.0305C3.51712 13.0305 4.15953 13.0305 4.82141 13.0305C4.4588 12.1033 4.4588 12.1033 4.08886 11.1573C3.77835 10.3353 3.46828 9.51323 3.1586 8.69097C2.99842 8.28486 2.83823 7.87876 2.67319 7.46034C1.74016 4.95035 1.40446 3.27363 2.22581 0.701389C3.68583 0.741945 3.68583 0.741945 5.47031 1.35029C6.55949 2.79789 7.26127 4.25351 8.06591 5.89259C8.15959 5.04942 8.25328 4.20626 8.3498 3.33755C8.71304 0.0683584 8.71304 0.0683585 11.0265 0.0119324Z" fill="#D17A63"/>
</svg>
