<svg width="22" height="32" viewBox="0 0 22 32" fill="none" xmlns="http://www.w3.org/2000/svg">
<path d="M4.95691 0.644714C18.9842 1.694 18.9842 1.694 21.1794 3.88921C21.0821 5.65246 21.0821 5.65246 20.7181 7.88907C20.5878 8.70735 20.4575 9.52563 20.3233 10.3687C20.1767 11.2372 20.0295 12.1056 19.8816 12.9738C19.7442 13.8017 19.6068 14.6296 19.4653 15.4826C19.0458 17.9737 18.6141 20.4624 18.1782 22.9507C18.0277 23.8158 17.8773 24.681 17.7271 25.5463C17.365 27.6284 17.0016 29.7102 16.6371 31.7919C16.2088 31.5778 15.7806 31.3636 15.3393 31.143C15.0934 29.5639 15.0934 29.5639 14.9743 27.6146C14.8649 25.0658 14.8649 25.0658 14.0415 22.7073C13.185 22.7073 12.3284 22.7073 11.4459 22.7073C11.1761 23.4689 11.1761 23.4689 10.9009 24.2459C10.6659 24.9025 10.4308 25.5592 10.1887 26.2357C9.95529 26.8907 9.72192 27.5456 9.48147 28.2204C8.85031 29.8452 8.85031 29.8452 8.20141 30.4941C7.12023 30.5205 6.03806 30.5218 4.95691 30.4941C4.95691 29.2093 4.95691 27.9245 4.95691 26.6007C2.70847 26.9219 2.70847 26.9219 0.414612 27.2496C0.65493 25.5073 0.885037 24.8079 2.23964 23.6401C3.18596 23.0182 4.13227 22.3964 5.07858 21.7745C6.43657 20.6038 6.72708 19.9303 6.90361 18.165C6.13516 17.2463 6.13516 17.2463 3.94301 17.4756C2.83886 17.4956 2.83886 17.4956 1.71241 17.5161C2.00301 15.3116 2.30298 13.1085 2.60465 10.9054C2.68662 10.2827 2.7686 9.65994 2.85306 9.01831C2.9367 8.41396 3.02035 7.80961 3.10653 7.18694C3.21867 6.35609 3.21867 6.35609 3.33308 5.50845C3.68207 3.77519 4.25449 2.26383 4.95691 0.644714Z" fill="#9BBFE9"/>
</svg>
