<svg width="61" height="35" viewBox="0 0 61 35" fill="none" xmlns="http://www.w3.org/2000/svg">
<path d="M60.4044 0.957703C60.4044 1.60011 60.4044 2.24252 60.4044 2.9044C60.0698 3.07645 59.7351 3.24851 59.3903 3.42577C52.0298 7.22045 44.7609 11.1423 37.5676 15.2452C32.4345 18.167 27.2499 20.9841 22.0458 23.7771C16.928 26.5342 11.8812 29.4041 6.8762 32.3611C6.34807 32.6688 5.81994 32.9766 5.27581 33.2937C4.81423 33.5662 4.35266 33.8388 3.87709 34.1196C2.65233 34.7005 2.65233 34.7005 0.705627 34.7005C0.705627 34.2722 0.705627 33.844 0.705627 33.4027C1.05993 33.211 1.41422 33.0193 1.77926 32.8218C9.91778 28.4129 18.0074 23.9267 26.0583 19.3601C32.0807 15.9446 38.1216 12.5622 44.168 9.18935C45.4738 8.46091 46.7792 7.73174 48.0842 7.00185C49.9046 5.98458 51.7271 4.9711 53.5504 3.95887C54.0959 3.65345 54.6415 3.34803 55.2035 3.03336C55.7011 2.75826 56.1986 2.48317 56.7113 2.19974C57.1449 1.95852 57.5786 1.7173 58.0254 1.46877C59.1066 0.957703 59.1066 0.957703 60.4044 0.957703Z" fill="#FEF5DE"/>
</svg>
