<svg width="136" height="58" viewBox="0 0 136 58" fill="none" xmlns="http://www.w3.org/2000/svg">
<path d="M18.5491 1.4374C19.9889 2.55016 19.9889 2.55016 21.4692 3.99244C24.4292 6.78255 27.5252 9.24363 30.8035 11.6409C31.7158 12.3206 32.598 13.0403 33.4738 13.7665C33.4738 14.1948 33.4738 14.623 33.4738 15.0643C33.8581 15.242 34.2425 15.4197 34.6384 15.6028C36.0183 16.335 37.037 17.0959 38.2012 18.1288C38.5959 18.4758 38.9907 18.8228 39.3974 19.1803C40.0186 19.7326 40.0186 19.7326 40.6523 20.2961C44.6793 23.835 48.7633 27.2768 52.9408 30.6379C55.0324 28.5756 57.0389 26.4714 58.9837 24.2706C60.8375 22.1954 62.7193 20.1797 64.7021 18.2277C66.7239 16.2338 68.6052 14.1646 70.4561 12.0124C73.2076 8.86474 76.0636 5.80925 78.8968 2.7352C80.8695 3.61194 82.1394 4.6071 83.6419 6.14192C84.7783 7.21279 84.7783 7.21279 86.0347 7.9264C88.3706 7.54484 88.3706 7.54484 90.577 6.6286C93.1396 6.7311 94.1477 6.99511 96.0927 8.69697C96.628 9.08509 97.1634 9.47321 97.7149 9.8731C99.5761 9.41693 99.5761 9.41693 101.608 8.5753C102.654 8.17254 102.654 8.17254 103.72 7.76164C105.153 7.19473 106.586 6.62694 108.019 6.05828C110.646 5.11452 113.094 4.58835 115.884 4.56023C116.299 4.55103 116.714 4.54183 117.141 4.53235C121.603 5.03089 124.108 7.95664 126.915 11.1709C128.331 13.0417 129.694 14.9361 131.027 16.8665C131.983 18.3681 131.983 18.3681 133.404 18.9577C134.512 21.3049 135.415 23.5709 136 26.0956C135.351 26.4421 135.351 26.4421 134.688 26.7957C127.023 30.8913 119.375 35.0052 111.829 39.3169C105.093 43.1617 98.2659 46.8215 91.4129 50.4506C91.0133 50.6623 90.6137 50.874 90.202 51.0922C89.1185 51.6658 88.0343 52.2383 86.9501 52.8108C85.7769 53.4403 84.6074 54.0829 83.4928 54.8111C79.5365 57.2953 76.4114 57.6959 71.8006 57.6111C71.1162 57.6116 70.4318 57.6121 69.7267 57.6126C67.4829 57.6103 65.2399 57.5851 62.9963 57.5596C61.4334 57.5536 59.8705 57.549 58.3076 57.5457C54.2078 57.5334 50.1085 57.5015 46.0088 57.4656C41.82 57.4323 37.6311 57.4176 33.4422 57.4012C25.2332 57.3665 17.0244 57.3118 8.81564 57.2428C8.07327 50.4345 8.07327 50.4345 8.15264 47.277C8.16568 46.6799 8.17872 46.0828 8.19216 45.4676C8.21847 44.5385 8.21847 44.5385 8.24532 43.5905C8.26064 42.9372 8.27596 42.2838 8.29175 41.6107C8.34097 39.5482 8.39571 37.4859 8.45064 35.4235C8.48522 34.0151 8.51945 32.6066 8.55329 31.1981C8.63654 27.7667 8.72431 24.3355 8.81564 20.9044C7.10255 20.9044 5.38945 20.9044 3.62444 20.9044C3.08156 19.0935 2.54115 17.2819 2.00219 15.4699C1.84745 14.9546 1.6927 14.4393 1.53326 13.9084C1.38688 13.4149 1.2405 12.9214 1.08968 12.4129C0.953751 11.9576 0.817825 11.5022 0.677779 11.0331C0.379944 9.8731 0.379944 9.8731 0.379944 8.5753C2.79185 7.24894 5.2144 5.94337 7.63951 4.64134C8.32416 4.26451 9.00882 3.88768 9.71422 3.49943C10.7086 2.96932 10.7086 2.96932 11.723 2.42849C12.6354 1.93406 12.6354 1.93406 13.5663 1.42964C15.5784 0.687526 16.5349 0.765483 18.5491 1.4374Z" fill="#F9E29C"/>
</svg>
