<svg width="53" height="3" viewBox="0 0 53 3" fill="none" xmlns="http://www.w3.org/2000/svg">
<path d="M1.29197 0.56012C18.2088 0.56012 35.1256 0.56012 52.5551 0.56012C52.1268 1.20253 51.6985 1.84494 51.2573 2.50682C49.6068 2.6928 48.1147 2.75248 46.4637 2.72782C45.7229 2.72825 45.7229 2.72825 44.9672 2.72868C43.3308 2.72732 41.6949 2.71216 40.0587 2.69693C38.9257 2.6933 37.7928 2.69053 36.6599 2.68858C33.6749 2.68114 30.6902 2.66201 27.7053 2.64049C24.6607 2.62059 21.6161 2.61169 18.5715 2.60187C12.5952 2.58098 6.61917 2.54775 0.643066 2.50682C0.857203 1.86441 1.07134 1.222 1.29197 0.56012Z" fill="#388F9A"/>
</svg>
