<svg width="11" height="11" viewBox="0 0 11 11" fill="none" xmlns="http://www.w3.org/2000/svg">
<path d="M8.70566 0.754717C9.92234 1.76862 9.92234 1.76862 10.6524 2.70142C8.70566 2.70142 8.70566 2.70142 6.39395 2.29585C5.65785 2.21555 4.92176 2.13525 4.16336 2.05252C2.59872 3.32199 2.59872 3.32199 2.78444 5.70258C2.81121 6.42529 2.83798 7.148 2.86556 7.89262C4.36451 8.32089 5.86347 8.74916 7.40786 9.19042C7.40786 9.40455 7.40786 9.61869 7.40786 9.83932C5.62338 10.326 5.62338 10.326 3.51446 10.4882C1.97332 9.55542 1.97332 9.55542 0.918855 7.89262C0.504643 5.57489 0.403279 3.46251 1.77054 1.44417C4.23384 -0.106799 5.96666 0.0699683 8.70566 0.754717Z" fill="#C0D39F"/>
</svg>
