<svg width="21" height="30" viewBox="0 0 21 30" fill="none" xmlns="http://www.w3.org/2000/svg">
<path d="M10.3765 0.808014C11.2517 2.55855 11.0356 3.82717 10.9468 5.78122C10.9154 6.50896 10.8841 7.23669 10.8517 7.98647C10.8154 8.74933 10.779 9.5122 10.7415 10.2982C10.7076 11.0661 10.6737 11.8339 10.6388 12.6251C10.5545 14.5263 10.4669 16.4274 10.3765 18.3283C12.3037 18.5425 14.2309 18.7566 16.2166 18.9772C16.2166 18.3348 16.2166 17.6924 16.2166 17.0305C16.6448 17.0305 17.0731 17.0305 17.5144 17.0305C17.7285 17.6729 17.9426 18.3153 18.1633 18.9772C19.0198 19.1914 19.8764 19.4055 20.7589 19.6261C20.7589 21.9816 20.7589 24.3371 20.7589 26.764C17.3327 27.6206 13.9065 28.4771 10.3765 29.3596C10.1623 27.6465 9.9482 25.9334 9.72758 24.1684C8.55232 22.9932 6.73434 23.2716 5.14472 23.1545C4.42787 23.1001 3.71101 23.0458 2.97243 22.9897C2.41785 22.9504 1.86327 22.9111 1.29188 22.8706C-0.11155 14.0334 -0.11155 14.0334 1.59605 10.5364C2.924 8.90715 4.32023 7.45613 5.83418 5.99921C6.70721 5.00565 7.57308 4.00573 8.42978 2.99805C9.07724 2.26676 9.72556 1.53623 10.3765 0.808014Z" fill="#BAD7E2"/>
</svg>
