<svg width="16" height="16" viewBox="0 0 16 16" fill="none" xmlns="http://www.w3.org/2000/svg">
<path d="M8.59647 0.57283C9.97538 0.816168 9.97538 0.816168 11.1921 1.22173C11.1921 2.50655 11.1921 3.79137 11.1921 5.11513C12.4769 5.11513 13.7617 5.11513 15.0855 5.11513C15.6568 7.5432 15.7619 9.76396 15.7344 12.253C15.1873 12.2848 14.6403 12.3166 14.0766 12.3494C13.3656 12.3979 12.6546 12.4464 11.9221 12.4964C11.2144 12.5415 10.5068 12.5867 9.77767 12.6332C7.86291 12.7284 7.86291 12.7284 6.64977 14.1997C6.00736 14.1997 5.36494 14.1997 4.70307 14.1997C4.70307 14.628 4.70307 15.0563 4.70307 15.4975C3.20411 15.4975 1.70515 15.4975 0.160767 15.4975C0.160767 11.6431 0.160767 7.7886 0.160767 3.81733C1.65973 3.81733 3.15868 3.81733 4.70307 3.81733C4.70307 4.2456 4.70307 4.67388 4.70307 5.11513C5.55961 5.11513 6.41616 5.11513 7.29867 5.11513C7.2719 4.60656 7.24513 4.09798 7.21755 3.57399C7.29867 1.87063 7.29867 1.87063 8.59647 0.57283Z" fill="#EDEEE0"/>
</svg>
