<svg width="20" height="14" viewBox="0 0 20 14" fill="none" xmlns="http://www.w3.org/2000/svg">
<path d="M0.918823 0.249634C1.74371 0.866097 2.5683 1.48297 3.39275 2.10001C3.85198 2.44349 4.3112 2.78697 4.78434 3.14085C6.33193 4.31079 7.84887 5.51529 9.35452 6.73863C12.0128 5.83022 13.8563 4.55964 16.0058 2.76412C19.0303 0.249634 19.0303 0.249634 19.7369 0.249634C19.7557 2.3991 19.7673 4.54855 19.7775 6.69808C19.7829 7.31163 19.7884 7.92518 19.794 8.55733C19.7971 9.43249 19.7971 9.43249 19.8003 10.3253C19.8054 11.1358 19.8054 11.1358 19.8106 11.9626C19.7369 13.2276 19.7369 13.2276 19.088 13.8765C17.7983 13.9413 16.5063 13.9614 15.2149 13.9627C14.4295 13.9636 13.644 13.9644 12.8348 13.9653C12.0075 13.9627 11.1802 13.9602 10.3279 13.9576C9.5006 13.9602 8.67333 13.9627 7.82099 13.9653C6.64282 13.964 6.64282 13.964 5.44085 13.9627C4.71437 13.962 3.98789 13.9613 3.2394 13.9605C1.56772 13.8765 1.56772 13.8765 0.918823 13.2276C0.862567 12.2616 0.849368 11.293 0.855454 10.3253C0.857545 9.74189 0.859636 9.15845 0.861791 8.55733C0.867228 7.94378 0.872665 7.33022 0.878267 6.69808C0.881194 6.08202 0.884122 5.46595 0.887139 4.83122C0.894813 3.30399 0.905507 1.77683 0.918823 0.249634Z" fill="#FEF8E8"/>
</svg>
