<svg width="128" height="37" viewBox="0 0 128 37" fill="none" xmlns="http://www.w3.org/2000/svg">
<path d="M125.567 0.188343C127.135 1.5886 127.393 3.11716 128 5.09565C127.351 5.44218 127.351 5.44218 126.688 5.79572C119.023 9.89138 111.375 14.0053 103.828 18.317C97.0931 22.1617 90.2659 25.8215 83.4128 29.4506C83.0132 29.6624 82.6136 29.8741 82.2019 30.0922C81.1184 30.6659 80.0342 31.2384 78.95 31.8108C77.7768 32.4403 76.6074 33.083 75.4927 33.8111C71.5365 36.2954 68.4113 36.696 63.8006 36.6112C63.1162 36.6117 62.4318 36.6121 61.7266 36.6126C59.4828 36.6104 57.2399 36.5852 54.9962 36.5597C53.4333 36.5536 51.8704 36.549 50.3075 36.5458C46.2078 36.5334 42.1084 36.5016 38.0088 36.4656C33.82 36.4324 29.6311 36.4176 25.4421 36.4013C17.2331 36.3666 9.0244 36.3112 0.815613 36.2429C0.815613 34.3156 0.815613 32.3884 0.815613 30.4028C22.2293 30.1886 43.643 29.9745 65.7056 29.7539C65.7056 30.3963 65.7056 31.0387 65.7056 31.7006C70.7336 29.3325 75.5615 26.6651 80.3869 23.9138C85.8355 20.8074 91.3214 17.7855 96.8528 14.8292C103.094 11.4929 109.278 8.07101 115.422 4.55955C123.713 -0.172024 123.713 -0.172024 125.567 0.188343Z" fill="#F9D892"/>
</svg>
