<svg width="35" height="28" viewBox="0 0 35 28" fill="none" xmlns="http://www.w3.org/2000/svg">
<path d="M20.8969 0.735229C23.1919 1.72709 24.7875 3.09829 26.6153 4.79086C29.2102 7.17043 31.8385 9.48986 34.5238 11.7665C33.6066 13.7062 32.537 15.4357 31.3198 17.2011C29.8065 19.4396 28.5172 21.6445 27.3859 24.0956C25.5931 23.7565 23.9298 23.3762 22.1947 22.7978C14.9052 21.9693 10.0135 23.997 4.02548 27.989C2.74066 26.9184 1.45584 25.8477 0.13208 24.7445C2.6341 19.3274 7.67859 15.1147 11.7198 10.8059C14.1309 8.23121 16.5031 5.63262 18.7981 2.95315C19.4664 2.18544 20.1772 1.45495 20.8969 0.735229Z" fill="#C86464"/>
</svg>
