<svg width="274" height="168" viewBox="0 0 274 168" fill="none" xmlns="http://www.w3.org/2000/svg">
<path d="M63.5536 2.81505C65.0542 4.31564 65.0542 4.31564 65.3787 6.34345C65.0542 8.20904 65.0542 8.20904 63.7564 9.50684C63.7418 11.0964 63.7418 11.0964 63.9997 12.8324C64.0717 13.423 64.1436 14.0135 64.2177 14.622C64.2796 15.0754 64.3415 15.5287 64.4053 15.9958C65.6901 16.317 65.6901 16.317 67.0009 16.6447C66.6797 18.2508 66.6797 18.2508 66.352 19.8892C65.9237 19.8892 65.4955 19.8892 65.0542 19.8892C64.9906 20.2807 64.9271 20.6722 64.8616 21.0755C64.417 23.4514 64.0499 25.3053 62.6614 27.311C60.7393 28.6098 58.866 29.1041 56.6185 29.6227C57.3376 31.7799 57.8224 32.1709 59.5386 33.5567C62.7775 36.291 65.5227 39.407 68.2987 42.6007C68.6726 42.1281 69.0465 41.6555 69.4317 41.1686C70.7648 39.5167 72.1272 37.907 73.5305 36.3145C73.9663 35.8168 74.4021 35.3191 74.8511 34.8063C76.0855 33.5161 76.0855 33.5161 78.0322 32.2183C80.1183 32.2107 80.1183 32.2107 82.5339 32.4211C83.3294 32.4855 84.1249 32.5499 84.9445 32.6163C86.6169 32.8095 88.097 33.0869 89.7124 33.5161C89.7646 33.1203 89.8168 32.7245 89.8705 32.3167C90.1109 30.5124 90.3577 28.7089 90.6046 26.9055C90.6866 26.2827 90.7686 25.66 90.853 25.0183C90.9785 24.1118 90.9785 24.1118 91.1065 23.187C91.2187 22.3561 91.2187 22.3561 91.3331 21.5085C91.6821 19.7752 92.2545 18.2638 92.9569 16.6447C98.9021 17.01 104.648 18.0775 110.477 19.2403C111.462 22.4184 110.703 25.0098 110.031 28.1627C109.237 32.2981 108.933 34.7435 111.116 38.4615C112.035 40.6135 112.106 42.6885 112.14 44.9935C112.154 45.7991 112.168 46.6046 112.183 47.4345C111.872 51.6103 110.03 55.6047 108.531 59.4721C109.139 59.1594 109.139 59.1594 109.759 58.8404C113.609 56.863 117.464 54.896 121.326 52.9401C123.31 51.9346 125.292 50.9253 127.269 49.9069C129.551 48.7321 131.841 47.5748 134.132 46.4181C134.83 46.0557 135.527 45.6934 136.246 45.3201C143.028 41.9272 149.799 40.1526 157.198 42.6007C162.764 45.0656 165.947 48.4793 168.675 53.8348C169.527 56.2276 169.527 56.2276 169.824 57.8702C170.96 63.6884 174.095 66.2433 178.612 69.8545C179.454 70.5795 180.293 71.309 181.126 72.0446C181.534 72.3992 181.943 72.7539 182.363 73.1193C184.622 75.1236 186.831 77.1815 189.046 79.234C191.703 81.6945 194.385 84.1244 197.083 86.5409C198.967 88.2396 200.835 89.9558 202.702 91.6738C204.803 93.6057 206.911 95.5247 209.069 97.3922C212.845 100.663 216.481 104.092 220.141 107.491C219.713 108.776 219.285 110.06 218.843 111.384C220.453 113.099 222.048 114.656 224.035 115.926C226.407 115.604 226.407 115.604 228.577 114.629C231.14 114.731 232.148 114.995 234.093 116.697C234.628 117.085 235.163 117.473 235.715 117.873C237.576 117.417 237.576 117.417 239.608 116.575C240.305 116.307 241.002 116.038 241.72 115.762C243.153 115.195 244.586 114.627 246.019 114.058C248.646 113.115 251.094 112.588 253.884 112.56C254.299 112.551 254.714 112.542 255.141 112.532C259.603 113.031 262.108 115.957 264.915 119.171C266.331 121.042 267.694 122.936 269.027 124.867C269.983 126.368 269.983 126.368 271.404 126.958C272.512 129.305 273.415 131.571 274 134.096C273.567 134.327 273.134 134.558 272.688 134.796C265.023 138.891 257.375 143.005 249.828 147.317C243.057 151.183 236.19 154.861 229.299 158.508C228.897 158.721 228.495 158.933 228.081 159.153C226.989 159.731 225.896 160.308 224.803 160.884C222.579 162.083 220.388 163.341 218.195 164.594C235.968 164.808 253.741 165.022 272.053 165.243C272.053 165.885 272.053 166.528 272.053 167.19C184.257 167.19 96.461 167.19 6.00431 167.19C5.79017 166.547 5.57603 165.905 5.35541 165.243C15.4198 165.029 25.4843 164.815 35.8537 164.594C33.7123 163.309 31.571 162.024 29.3647 160.701C11.8746 147.506 4.10343 123.428 1.04662 102.698C0.209784 96.618 0.00805039 90.5874 0.00198029 84.4548C0.00132679 83.9956 0.000673299 83.5364 0 83.0633C0.0126877 69.8614 1.34561 54.9675 10.6277 44.6691C13.5782 41.9118 17.2795 40.3433 20.929 38.7073C20.6137 38.3451 20.2983 37.9829 19.9734 37.6098C18.318 35.1076 18.5462 32.5205 18.9823 29.6227C20.148 27.7187 20.8927 26.7208 22.8757 25.7293C25.7645 25.5688 27.472 25.7563 30.0136 27.0271C31.1012 26.8437 32.1843 26.63 33.2581 26.3782C33.2899 25.6104 33.3217 24.8425 33.3544 24.0513C34.0831 7.96118 34.0831 7.96118 38.4493 3.66674C44.7232 -0.174455 57.0179 -0.856523 63.5536 2.81505ZM87.7657 41.9518C87.3374 42.8084 86.9092 43.6649 86.4679 44.5474C87.1103 44.1192 87.7527 43.6909 88.4146 43.2496C88.2005 42.8214 87.9863 42.3931 87.7657 41.9518ZM92.308 47.7919C92.0403 48.129 91.7727 48.4661 91.4969 48.8134C87.4839 53.6595 82.9821 56.1238 77.3833 58.8232C77.877 59.8808 78.3787 60.9345 78.8839 61.9866C79.1624 62.5738 79.441 63.161 79.728 63.766C80.5759 65.4839 80.5759 65.4839 82.5745 66.61C84.5017 63.8262 86.429 61.0425 88.4146 58.1743C89.6994 58.3885 90.9842 58.6026 92.308 58.8232C92.5608 57.3513 92.8019 55.8773 93.038 54.4026C93.1735 53.582 93.309 52.7614 93.4486 51.916C93.8357 49.6524 93.8357 49.6524 92.308 47.7919ZM144.869 128.904C144.844 130.011 144.844 130.011 144.818 131.14C144.515 140.476 143.367 149.426 137.082 156.807C132.851 160.709 128.297 162.98 122.806 164.594C122.806 164.808 122.806 165.022 122.806 165.243C130.729 165.243 138.652 165.243 146.816 165.243C146.923 160.485 147.029 155.727 147.128 150.969C147.163 149.35 147.199 147.731 147.236 146.112C147.289 143.787 147.338 141.461 147.386 139.135C147.403 138.41 147.421 137.685 147.439 136.939C147.452 136.263 147.465 135.588 147.479 134.892C147.498 134.002 147.498 134.002 147.518 133.093C147.468 131.592 147.243 130.339 146.816 128.904C146.173 128.904 145.531 128.904 144.869 128.904Z" fill="#D7E3DB"/>
</svg>
