<svg width="25" height="22" viewBox="0 0 25 22" fill="none" xmlns="http://www.w3.org/2000/svg">
<path d="M10.7251 0.209015C12.3232 0.357456 13.9197 0.513466 15.5158 0.683016C16.8367 0.819052 18.1607 0.92553 19.4852 1.02014C21.1075 1.50681 21.1075 1.50681 21.9997 2.96684C22.3972 4.71594 22.5073 6.20952 22.4053 7.99581C23.2618 8.20995 24.1183 8.42409 25.0008 8.64471C24.7867 9.7154 24.5726 10.7861 24.3519 11.8892C23.9237 11.8892 23.4954 11.8892 23.0542 11.8892C22.9588 12.4764 22.9588 12.4764 22.8615 13.0755C22.4196 15.4376 22.0217 17.3211 20.7019 19.3516C18.523 20.7277 16.5506 21.2778 13.9696 20.9738C12.1851 19.5949 12.1851 19.5949 10.7251 17.7293C8.54323 14.9699 7.01278 13.2675 3.50604 12.4976C0.991555 11.8892 0.991555 11.8892 0.342655 11.2403C0.220987 9.00972 0.220987 9.00972 0.342655 6.69801C1.64046 5.40021 1.64046 5.40021 3.87105 5.3191C4.63391 5.34587 5.39677 5.37264 6.18275 5.40021C6.82516 5.40021 7.46758 5.40021 8.12945 5.40021C8.986 3.68712 9.84255 1.97402 10.7251 0.209015Z" fill="#C86362"/>
</svg>
