<svg width="43" height="34" viewBox="0 0 43 34" fill="none" xmlns="http://www.w3.org/2000/svg">
<path d="M18.5491 1.4374C19.9889 2.55016 19.9889 2.55016 21.4692 3.99244C24.4292 6.78255 27.5252 9.24364 30.8035 11.6409C31.7158 12.3206 32.5981 13.0403 33.4738 13.7665C33.4738 14.1948 33.4738 14.623 33.4738 15.0643C33.8469 15.2375 34.22 15.4106 34.6044 15.589C37.6305 17.1859 40.609 19.2355 41.8842 22.5013C42.193 23.92 42.4274 25.2992 42.5584 26.7445C42.0959 26.9954 41.6333 27.2464 41.1567 27.5049C37.7093 29.3794 34.276 31.2704 30.8782 33.2335C30.6574 32.9357 30.4366 32.6379 30.2091 32.3311C27.2905 28.6363 24.269 26.9207 19.8469 25.4467C18.0698 25.401 16.3103 25.386 14.5341 25.4062C14.0477 25.4091 13.5613 25.412 13.0601 25.415C11.8616 25.4227 10.663 25.4343 9.46454 25.4467C9.25041 23.9477 9.03627 22.4488 8.81564 20.9044C7.10255 20.9044 5.38945 20.9044 3.62444 20.9044C3.08156 19.0935 2.54115 17.2819 2.00219 15.4699C1.84745 14.9546 1.6927 14.4393 1.53326 13.9084C1.38688 13.4149 1.2405 12.9214 1.08968 12.4129C0.953751 11.9576 0.817825 11.5022 0.677779 11.0331C0.379944 9.8731 0.379944 9.8731 0.379944 8.5753C2.79185 7.24894 5.2144 5.94337 7.63951 4.64134C8.32417 4.26451 9.00882 3.88768 9.71422 3.49943C10.7086 2.96932 10.7086 2.96932 11.723 2.42849C12.6354 1.93406 12.6354 1.93406 13.5663 1.42964C15.5784 0.687525 16.5349 0.765483 18.5491 1.4374Z" fill="#BCC7C6"/>
</svg>
