<svg width="35" height="20" viewBox="0 0 35 20" fill="none" xmlns="http://www.w3.org/2000/svg">
<path d="M28.5256 2.1999C32.315 5.54758 34.0739 7.65763 34.5584 12.7445C34.0958 12.9955 33.6332 13.2464 33.1567 13.505C29.7093 15.3794 26.2759 17.2704 22.8782 19.2335C22.6574 18.9357 22.4365 18.638 22.209 18.3311C19.2904 14.6364 16.269 12.9207 11.8469 11.4467C10.0698 11.401 8.3102 11.386 6.53402 11.4062C6.04761 11.4091 5.5612 11.412 5.06005 11.415C3.86151 11.4227 2.66299 11.4343 1.46449 11.4467C1.03621 9.73363 0.607939 8.02053 0.166687 6.25552C4.90253 4.58464 9.67552 3.34104 14.5642 2.1999C15.3099 2.01754 16.0556 1.83519 16.8239 1.64732C17.5462 1.47835 18.2685 1.30938 19.0127 1.13529C19.6619 0.981174 20.3112 0.827054 20.9801 0.668264C23.9186 0.276822 26.0337 0.586606 28.5256 2.1999Z" fill="#C86565"/>
</svg>
