<svg width="93" height="51" viewBox="0 0 93 51" fill="none" xmlns="http://www.w3.org/2000/svg">
<path d="M18.5491 1.4374C19.9889 2.55016 19.9889 2.55016 21.4692 3.99244C24.4292 6.78255 27.5252 9.24363 30.8035 11.6409C31.7158 12.3206 32.5981 13.0403 33.4738 13.7665C33.4738 14.1948 33.4738 14.623 33.4738 15.0643C33.8581 15.242 34.2425 15.4197 34.6384 15.6028C36.0183 16.335 37.037 17.0959 38.2012 18.1288C38.5959 18.4758 38.9907 18.8228 39.3974 19.1803C40.0186 19.7326 40.0186 19.7326 40.6523 20.2961C44.6793 23.835 48.7633 27.2768 52.9408 30.6379C55.0324 28.5756 57.0389 26.4714 58.9837 24.2706C60.8375 22.1954 62.7193 20.1797 64.7022 18.2277C66.7239 16.2338 68.6052 14.1646 70.4561 12.0124C73.2076 8.86474 76.0636 5.80925 78.8968 2.7352C81.1918 3.72706 82.7874 5.09826 84.6153 6.79082C87.2101 9.17039 89.8384 11.4898 92.5237 13.7665C91.6065 15.7062 90.537 17.4357 89.3198 19.201C87.8065 21.4396 86.5171 23.6444 85.3858 26.0956C83.5931 25.7564 81.9297 25.3762 80.1946 24.7978C74.1169 24.1069 68.953 24.947 63.9721 28.6912C63.2013 29.8292 63.2013 29.8292 63.3232 31.2868C63.8715 32.8568 64.4487 34.2899 65.1483 35.7885C65.5043 36.5784 65.86 37.3684 66.2154 38.1585C66.5458 38.8888 66.8762 39.619 67.2166 40.3714C67.8591 41.9774 67.8591 41.9774 68.5144 43.6159C70.8699 43.6159 73.2255 43.6159 75.6523 43.6159C75.6523 43.83 75.6523 44.0442 75.6523 44.2648C73.9392 44.4789 72.2261 44.6931 70.4611 44.9137C71.1036 46.4127 71.746 47.9116 72.4078 49.456C51.2088 50.1633 30.0246 50.171 8.81564 50.1049C8.81564 40.4687 8.81564 30.8326 8.81564 20.9044C7.10255 20.9044 5.38945 20.9044 3.62444 20.9044C3.08156 19.0935 2.54115 17.2819 2.00219 15.4699C1.84745 14.9546 1.6927 14.4393 1.53326 13.9084C1.38688 13.4149 1.2405 12.9214 1.08968 12.4129C0.953751 11.9576 0.817825 11.5022 0.677779 11.0331C0.379944 9.8731 0.379944 9.8731 0.379944 8.5753C2.79185 7.24894 5.2144 5.94337 7.63951 4.64134C8.32417 4.26451 9.00882 3.88768 9.71422 3.49943C10.7086 2.96932 10.7086 2.96931 11.723 2.42849C12.6354 1.93406 12.6354 1.93406 13.5663 1.42964C15.5784 0.687526 16.5349 0.765483 18.5491 1.4374Z" fill="#F9DF96"/>
</svg>
