<svg width="12" height="9" viewBox="0 0 12 9" fill="none" xmlns="http://www.w3.org/2000/svg">
<path d="M7.51449 0.488174C8.16339 1.35337 8.81229 2.21857 9.46119 3.08377C10.0032 3.70611 10.0032 3.70611 10.5562 4.34102C11.5988 5.97939 11.5667 7.01765 11.4079 8.92387C11.1937 8.4956 10.9796 8.06733 10.759 7.62607C9.119 7.20069 9.119 7.20069 7.51449 6.97717C7.51449 6.33476 7.51449 5.69235 7.51449 5.03047C7.08621 5.03047 6.65794 5.03047 6.21669 5.03047C6.21669 5.67289 6.21669 6.3153 6.21669 6.97717C4.28945 6.76304 2.36222 6.5489 0.376587 6.32827C0.376587 5.25759 0.376587 4.1869 0.376587 3.08377C1.019 3.40498 1.019 3.40498 1.67439 3.73267C1.67439 4.37509 1.67439 5.0175 1.67439 5.67937C2.3168 5.67937 2.95921 5.67937 3.62109 5.67937C3.62109 5.2511 3.62109 4.82283 3.62109 4.38157C4.83777 3.00266 4.83777 3.00266 6.21669 1.78597C6.64496 1.78597 7.07323 1.78597 7.51449 1.78597C7.51449 1.3577 7.51449 0.929426 7.51449 0.488174Z" fill="#8C929D"/>
</svg>
