<svg width="29" height="48" viewBox="0 0 29 48" fill="none" xmlns="http://www.w3.org/2000/svg">
<path d="M15.3013 1.1278C17.2885 2.30393 17.2885 2.30393 18.5458 3.7234C18.5458 4.36581 18.5458 5.00822 18.5458 5.6701C19.2283 5.73033 19.2283 5.73033 19.9247 5.79177C22.9405 6.64407 24.9419 8.50845 26.728 11.0489C28.4016 14.3114 28.6329 17.6246 28.2793 21.2437C26.9459 24.2829 25.2062 27.1499 22.6394 29.3017C21.3411 30.8713 21.4516 32.3444 21.3441 34.3434C21.3015 35.0485 21.2588 35.7537 21.2149 36.4802C21.1906 37.0197 21.1663 37.5592 21.1414 38.1151C22.8544 38.5434 24.5675 38.9716 26.3326 39.4129C26.6164 40.7918 26.6164 40.7918 26.3326 42.6574C24.1136 45.1507 21.8058 47.0213 18.3937 47.3315C14.6585 47.4011 12.0679 47.1412 8.81225 45.253C7.23056 43.6713 7.23056 43.6713 6.21665 42.0085C6.21665 41.152 6.21665 40.2954 6.21665 39.4129C8.46509 39.0917 8.46509 39.0917 10.759 38.764C10.759 36.4085 10.759 34.053 10.759 31.6261C9.68827 31.412 8.61758 31.1978 7.51445 30.9772C7.51445 30.3348 7.51445 29.6924 7.51445 29.0305C7.08618 29.0305 6.6579 29.0305 6.21665 29.0305C6.21665 29.6729 6.21665 30.3153 6.21665 30.9772C4.28942 30.7631 2.36219 30.5489 0.376554 30.3283C0.319314 27.7598 0.285192 25.1915 0.254885 22.6226C0.238574 21.9032 0.222262 21.1839 0.205457 20.4427C0.155613 14.7938 0.460072 9.00023 4.55385 4.69675C4.92775 4.28855 5.30165 3.88035 5.68689 3.45978C8.6068 0.897798 11.534 0.571427 15.3013 1.1278Z" fill="#EAD899"/>
</svg>
