<svg width="29" height="27" viewBox="0 0 29 27" fill="none" xmlns="http://www.w3.org/2000/svg">
<path d="M16.5617 0.34003C17.7049 0.430783 18.8481 0.5212 19.9913 0.61125C20.7819 0.681984 20.7819 0.681984 21.5885 0.754147C23.1482 0.878241 24.6906 0.909533 26.2547 0.867261C26.6829 1.72381 27.1112 2.58036 27.5525 3.46286C24.8769 6.22205 22.0285 8.74254 19.1168 11.2497C19.7592 11.0355 20.4016 10.8214 21.0635 10.6008C22.3536 10.3427 23.6522 10.122 24.9569 9.95186C25.6058 10.6008 25.6058 10.6008 25.6463 12.2636C25.6329 12.7855 25.6196 13.3075 25.6058 13.8453C26.6765 13.8453 27.7471 13.8453 28.8503 13.8453C28.4763 16.9307 27.1951 19.0173 25.6058 21.6321C25.1011 20.1181 24.6816 18.6378 24.308 17.0898C23.9843 17.4662 23.6605 17.8426 23.327 18.2304C19.4402 22.4591 15.4199 24.8521 10.0322 26.8233C9.6039 26.8233 9.17562 26.8233 8.73437 26.8233C7.42744 24.6114 6.1331 22.3925 4.84097 20.172C4.46958 19.5438 4.09818 18.9157 3.71553 18.2684C3.36422 17.662 3.0129 17.0555 2.65093 16.4307C2.1616 15.5948 2.1616 15.5948 1.66237 14.7419C0.947571 13.1964 0.947571 13.1964 0.947571 10.6008C1.94627 8.89993 1.94627 8.89993 3.29983 7.07237C3.73647 6.47094 4.17311 5.86952 4.62298 5.24987C8.52262 0.652474 10.7383 -0.252113 16.5617 0.34003Z" fill="#C26163"/>
</svg>
