<svg width="150" height="122" viewBox="0 0 150 122" fill="none" xmlns="http://www.w3.org/2000/svg">
<path d="M45.5536 2.81506C47.0542 4.31564 47.0542 4.31564 47.3786 6.34345C47.0542 8.20904 47.0542 8.20904 45.7564 9.50684C45.7417 11.0964 45.7417 11.0964 45.9997 12.8325C46.0716 13.423 46.1436 14.0135 46.2177 14.622C46.2796 15.0754 46.3415 15.5287 46.4053 15.9958C47.6901 16.317 47.6901 16.317 49.0009 16.6447C48.6797 18.2508 48.6797 18.2508 48.352 19.8892C47.9237 19.8892 47.4954 19.8892 47.0542 19.8892C46.9906 20.2807 46.927 20.6722 46.8615 21.0755C46.417 23.4514 46.0499 25.3053 44.6613 27.311C42.7392 28.6098 40.8659 29.1041 38.6185 29.6227C39.3375 31.7799 39.8224 32.1709 41.5385 33.5567C44.7774 36.291 47.5226 39.407 50.2987 42.6007C50.6726 42.1281 51.0465 41.6555 51.4317 41.1686C52.7648 39.5167 54.1272 37.907 55.5304 36.3145C55.9662 35.8168 56.402 35.3191 56.851 34.8063C58.0855 33.5161 58.0855 33.5161 60.0322 32.2183C62.1183 32.2107 62.1183 32.2107 64.5339 32.4211C65.3294 32.4855 66.1249 32.5499 66.9445 32.6163C68.6168 32.8095 70.097 33.0869 71.7124 33.5161C71.7645 33.1203 71.8167 32.7245 71.8705 32.3167C72.1108 30.5124 72.3576 28.7089 72.6046 26.9055C72.6866 26.2827 72.7685 25.66 72.853 25.0183C72.9785 24.1118 72.9785 24.1118 73.1065 23.187C73.1812 22.6331 73.256 22.0792 73.333 21.5085C73.682 19.7752 74.2544 18.2638 74.9569 16.6447C80.902 17.01 86.6483 18.0775 92.4772 19.2403C93.4624 22.4184 92.7034 25.0098 92.031 28.1627C91.2372 32.2981 90.9332 34.7435 93.1159 38.4615C95.6446 44.3845 93.7335 51.7767 91.4683 57.4266C90.2202 60.1488 88.8672 62.7687 87.286 65.3122C88.1425 65.7405 88.9991 66.1688 89.8816 66.61C89.6023 68.8441 88.9206 70.5883 87.9044 72.5718C87.6679 73.0361 87.4314 73.5003 87.1877 73.9786C87.006 74.3308 86.8243 74.6829 86.6371 75.0457C87.129 74.8971 87.621 74.7484 88.1279 74.5952C92.804 73.182 97.4804 71.7695 102.157 70.3577C104.56 69.6321 106.963 68.9064 109.366 68.18C111.693 67.4768 114.02 66.7742 116.346 66.0721C117.226 65.8064 118.106 65.5405 118.986 65.2744C123.486 63.9135 127.99 62.5673 132.503 61.2531C133.226 61.0423 133.949 60.8315 134.693 60.6143C137.058 60.0032 139.031 59.8138 141.469 59.8777C142.185 59.8861 142.901 59.8944 143.639 59.9031C145.776 60.1305 147.574 60.6634 149.58 61.4188C147.541 62.0744 146.43 61.9462 144.389 61.4188C138.454 60.661 133.004 62.6315 127.416 64.3541C126.409 64.6574 125.4 64.9598 124.392 65.2613C121.751 66.0533 119.113 66.8553 116.476 67.6601C112.257 68.9458 108.033 70.2162 103.81 71.4862C102.346 71.9279 100.884 72.3741 99.4214 72.8211C94.7677 74.2346 90.1459 75.5448 85.3393 76.3435C85.1776 76.876 85.016 77.4085 84.8494 77.9571C83.912 80.6022 82.7428 83.0568 81.4966 85.5676C81.2484 86.0698 81.0002 86.572 80.7445 87.0895C80.2201 88.1476 79.6943 89.205 79.1671 90.2618C78.3688 91.8661 77.5803 93.475 76.792 95.0843C76.2789 96.1167 75.7652 97.1488 75.2509 98.1806C75.0196 98.6559 74.7882 99.1312 74.5499 99.6209C72.4045 103.875 69.8514 108.057 65.1828 109.721C64.6533 109.921 64.1238 110.121 63.5783 110.327C61.9004 110.755 60.4586 110.812 58.7344 110.735C58.4985 111.445 58.4985 111.445 58.2578 112.17C56.5129 116.015 52.9701 118.922 49.4875 121.199C45.5793 122.442 42.1733 120.157 38.7401 118.39C30.1818 113.566 23.0724 106.882 17.2048 99.055C16.7966 98.5172 16.3884 97.9793 15.9678 97.4252C12.2902 92.1588 10.5312 86.3445 8.76906 80.2369C8.54656 79.5109 8.32406 78.7848 8.09481 78.0368C6.7721 73.0179 6.64616 68.1302 6.61958 62.96C6.61592 62.287 6.61226 61.614 6.60849 60.9206C6.6524 56.2203 7.22157 51.7525 8.12016 47.143C8.24788 46.4859 8.3756 45.8287 8.50719 45.1517C8.80308 43.6507 9.10648 42.1518 9.41796 40.654C8.97212 40.5436 8.52628 40.4332 8.06693 40.3195C7.48223 40.1622 6.89754 40.0049 6.29513 39.8429C5.71545 39.6924 5.13578 39.5418 4.53853 39.3867C2.62317 38.5783 1.97503 37.9264 0.982258 36.1117C0.413386 32.9599 0.518762 30.3798 2.19895 27.6355C4.0214 25.9738 4.55882 25.7469 7.0657 25.6077C9.31568 25.7241 10.0971 26.0689 12.0136 27.0271C13.1011 26.8437 14.1843 26.63 15.2581 26.3782C15.2898 25.6104 15.3216 24.8425 15.3544 24.0513C16.083 7.96118 16.083 7.96118 20.4493 3.66674C26.7232 -0.174455 39.0179 -0.856523 45.5536 2.81506ZM69.7657 41.9518C69.3374 42.8084 68.9091 43.6649 68.4679 44.5474C69.1103 44.1192 69.7527 43.6909 70.4146 43.2496C70.2004 42.8214 69.9863 42.3931 69.7657 41.9518ZM74.308 47.7919C74.0403 48.129 73.7726 48.4661 73.4968 48.8135C69.4839 53.6595 64.9821 56.1238 59.3833 58.8232C59.8769 59.8808 60.3787 60.9345 60.8838 61.9866C61.1624 62.5738 61.4409 63.161 61.7279 63.766C62.5758 65.4839 62.5758 65.4839 64.5745 66.61C66.5017 63.8263 68.4289 61.0425 70.4146 58.1743C71.6994 58.3885 72.9842 58.6026 74.308 58.8232C74.5607 57.3513 74.8019 55.8773 75.038 54.4026C75.1735 53.582 75.309 52.7615 75.4486 51.916C75.8357 49.6524 75.8357 49.6524 74.308 47.7919Z" fill="#FA7DB6"/>
</svg>
