<svg width="24" height="21" viewBox="0 0 24 21" fill="none" xmlns="http://www.w3.org/2000/svg">
<path d="M21.3174 2.44677C22 2.87505 22.6826 3.30332 23.3858 3.74457C23.6843 8.37116 23.1599 12.0212 20.7902 16.0737C19.0691 17.9673 17.2403 19.4709 14.9501 20.616C13.5178 20.662 12.0841 20.6706 10.6512 20.6565C9.87992 20.6507 9.1087 20.6448 8.3141 20.6388C7.7202 20.6313 7.12631 20.6237 6.51442 20.616C5.65615 18.9698 4.80575 17.3204 3.95937 15.6681C3.71721 15.2055 3.47505 14.743 3.22556 14.2664C1.87618 11.6163 0.972847 9.34444 0.674316 6.34017C1.57743 5.71448 2.48385 5.09356 3.39158 4.47458C3.89598 4.12828 4.40037 3.78198 4.92005 3.42519C9.83791 0.407232 16.0673 -0.197073 21.3174 2.44677Z" fill="#FEF7E6"/>
</svg>
