<svg width="12" height="14" viewBox="0 0 12 14" fill="none" xmlns="http://www.w3.org/2000/svg">
<path d="M11.8376 0.710705C11.329 1.2059 10.8204 1.70109 10.2965 2.21129C8.54599 3.8961 8.54599 3.8961 7.29529 5.90191C7.62319 6.12106 7.95108 6.34022 8.28892 6.56602C8.7105 6.85543 9.13208 7.14485 9.56644 7.44304C10.1988 7.87215 10.1988 7.87215 10.844 8.30993C11.1719 8.58597 11.4998 8.86201 11.8376 9.14641C11.8376 9.57468 11.8376 10.003 11.8376 10.4442C7.45751 13.0398 7.45751 13.0398 5.99749 13.0398C5.78335 11.1126 5.56921 9.18534 5.34859 7.19971C5.02822 7.57445 4.70785 7.94919 4.37777 8.33528C3.75418 9.05799 3.75418 9.05799 3.11799 9.79531C2.49691 10.518 2.49691 10.518 1.86329 11.2553C1.51448 11.6301 1.16567 12.0048 0.806288 12.3909C0.592151 12.3909 0.378014 12.3909 0.157388 12.3909C-0.0854977 9.35484 -0.130738 7.14922 1.21185 4.36077C4.42536 0.808993 7.29495 0.475741 11.8376 0.710705Z" fill="#FED3BF"/>
</svg>
