<svg width="209" height="109" viewBox="0 0 209 109" fill="none" xmlns="http://www.w3.org/2000/svg">
<path d="M134.508 0.633934C135.07 0.630275 135.633 0.626615 136.212 0.622845C136.827 0.625472 137.442 0.628099 138.075 0.630805C138.724 0.628531 139.373 0.626257 140.042 0.623914C142.192 0.618192 144.342 0.621988 146.492 0.62637C147.983 0.625496 149.474 0.624237 150.965 0.622607C154.092 0.620692 157.219 0.623481 160.345 0.629538C164.358 0.636932 168.371 0.632675 172.384 0.624902C175.464 0.620218 178.543 0.621702 181.622 0.625068C183.102 0.625935 184.582 0.624865 186.062 0.62185C188.128 0.618563 190.195 0.623566 192.261 0.630805C192.876 0.628178 193.491 0.625551 194.124 0.622845C194.968 0.628334 194.968 0.628334 195.828 0.633934C196.317 0.634424 196.805 0.634913 197.308 0.635417C198.586 0.798734 198.586 0.798734 200.533 2.09653C200.768 3.49003 200.768 3.49003 200.757 5.25211C200.758 6.2523 200.758 6.2523 200.759 7.27269C200.745 8.37448 200.745 8.37448 200.731 9.49852C200.73 10.2699 200.728 11.0413 200.726 11.836C200.72 13.9559 200.706 16.0756 200.691 18.1954C200.677 20.4147 200.679 22.6339 200.681 24.8532C200.683 32.4154 200.668 39.9773 200.62 47.5393C200.594 51.7143 200.586 55.8888 200.598 60.0639C200.604 62.2727 200.6 64.4806 200.572 66.6893C200.546 69.1566 200.551 71.622 200.564 74.0894C200.548 74.8174 200.533 75.5453 200.517 76.2954C200.539 80.0982 200.539 80.0982 202.333 83.3273C203.699 84.5451 203.699 84.5451 205.133 85.525C207.146 87.0322 207.673 88.6109 208.32 90.9958C208.897 96.0962 207.996 99.4428 205.278 103.771C202.311 106.738 199.298 108.018 195.099 108.232C191.26 108.088 188.086 106.839 184.959 104.623C183.013 102.386 183.013 102.386 183.013 100.729C182.042 100.734 182.042 100.734 181.051 100.738C174.959 100.764 168.867 100.784 162.775 100.797C159.642 100.803 156.51 100.813 153.378 100.827C150.357 100.841 147.336 100.849 144.315 100.852C143.161 100.855 142.006 100.86 140.852 100.867C139.239 100.876 137.626 100.877 136.013 100.877C135.533 100.881 135.052 100.886 134.557 100.891C131.249 100.877 131.249 100.877 129.803 99.4315C129.689 97.7101 129.653 96.0574 129.676 94.3367C129.678 93.8344 129.68 93.3321 129.682 92.8146C129.689 91.2079 129.705 89.6014 129.722 87.9947C129.728 86.9064 129.734 85.8182 129.74 84.7299C129.754 82.0599 129.776 79.39 129.803 76.72C111.851 75.7339 98.9721 77.5538 83.6962 87.3242C81.9017 88.3342 80.5659 88.7958 78.5399 89.0491C78.076 87.9997 78.076 87.9997 77.891 86.4535C78.8212 84.5423 78.8212 84.5423 80.1216 82.479C81.8155 80.0916 81.8155 80.0916 82.4333 77.3689C81.8734 77.3595 81.3136 77.35 80.7367 77.3403C78.6577 77.3006 76.579 77.2525 74.5003 77.1986C73.6009 77.1771 72.7015 77.1589 71.802 77.1441C70.5084 77.1224 69.215 77.0874 67.9217 77.0521C67.1436 77.0351 66.3654 77.0181 65.5636 77.0006C63.6152 76.72 63.6152 76.72 62.3934 75.9774C61.3391 74.2263 61.3842 72.785 61.3364 70.7507C61.3134 69.9665 61.2904 69.1823 61.2667 68.3743C61.2521 67.555 61.2374 66.7357 61.2224 65.8915C61.2002 65.0647 61.178 64.2378 61.1552 63.3859C61.1016 61.3417 61.0567 59.2976 61.0196 57.253C60.4272 57.5675 59.8348 57.8821 59.2245 58.2061C57.021 59.3738 54.8129 60.5326 52.6034 61.6889C51.6486 62.1901 50.6951 62.6936 49.7429 63.1996C48.3721 63.9275 46.997 64.6466 45.6209 65.3643C45.1976 65.5914 44.7744 65.8185 44.3383 66.0525C42.0174 67.2511 40.2829 67.916 37.6592 67.6354C38.0089 64.6517 38.805 62.53 40.2953 59.9297C40.6508 59.3024 41.0063 58.675 41.3726 58.0287C41.7829 57.3235 41.7829 57.3235 42.2015 56.6041C41.1736 55.5763 40.0749 55.8126 38.6503 55.7499C38.0668 55.7227 37.4834 55.6955 36.8823 55.6675C36.2687 55.642 35.6552 55.6165 35.023 55.5902C34.407 55.5622 33.7909 55.5342 33.1562 55.5053C31.6291 55.4363 30.1019 55.3701 28.5746 55.3063C28.5102 55.9989 28.4458 56.6915 28.3794 57.4051C27.6135 61.5299 24.9379 63.9689 21.5584 66.2971C16.4244 68.0084 12.0827 68.0176 7.16088 65.6887C3.62205 63.678 1.95745 60.3607 0.671883 56.6041C0.0238029 52.576 0.339498 48.9928 2.40059 45.4334C4.69683 42.3651 7.40333 40.27 11.0543 39.0838C12.8185 38.9115 12.8185 38.9115 14.6232 38.9216C15.2188 38.9183 15.8144 38.9149 16.428 38.9115C18.3122 39.0956 19.7021 39.6496 21.4367 40.3816C21.4299 39.5825 21.4231 38.7833 21.4161 37.96C21.3926 35.002 21.3777 32.0441 21.3654 29.0861C21.3589 27.8045 21.35 26.523 21.3388 25.2415C21.3231 23.4021 21.3157 21.5628 21.3099 19.7233C21.3032 19.148 21.2965 18.5728 21.2896 17.9801C21.2894 16.5781 21.357 15.1765 21.4367 13.7767C23.0831 12.1304 23.6506 12.3149 25.9322 12.3098C26.6082 12.3052 27.2842 12.3006 27.9807 12.2958C28.7253 12.2974 29.47 12.2991 30.2372 12.3007C31.41 12.2957 31.41 12.2957 32.6065 12.2907C34.7544 12.2832 36.9021 12.2816 39.0499 12.2832C40.8415 12.2839 42.6332 12.2808 44.4248 12.2777C48.6509 12.2704 52.8771 12.2702 57.1032 12.2741C61.466 12.278 65.8286 12.27 70.1914 12.2562C73.9344 12.2448 77.6773 12.2409 81.4203 12.243C83.6571 12.2442 85.8937 12.2424 88.1304 12.2334C90.6241 12.2238 93.1176 12.2298 95.6114 12.2373C96.3547 12.2324 97.0981 12.2274 97.864 12.2223C98.8807 12.2291 98.8807 12.2291 99.918 12.2361C100.803 12.2359 100.803 12.2359 101.706 12.2358C103.495 12.5273 104.072 12.9873 105.145 14.4256C105.379 15.8915 105.379 15.8915 105.366 17.625C105.366 18.2744 105.365 18.9238 105.365 19.5929C105.355 20.2926 105.345 20.9922 105.335 21.7131C105.332 22.4305 105.329 23.1479 105.327 23.887C105.316 26.1814 105.291 28.4755 105.266 30.7698C105.257 32.324 105.248 33.8783 105.24 35.4325C105.22 39.2455 105.182 43.0576 105.145 46.8706C113.282 46.8706 121.419 46.8706 129.803 46.8706C129.78 43.6536 129.758 40.4365 129.735 37.1219C129.725 35.0873 129.715 33.0528 129.708 31.0182C129.696 27.7867 129.682 24.5554 129.656 21.324C129.635 18.7196 129.623 16.1154 129.618 13.5109C129.615 12.5158 129.608 11.5208 129.597 10.5257C129.583 9.13501 129.581 7.74477 129.582 6.35399C129.575 5.1652 129.575 5.1652 129.569 3.9524C129.646 3.33996 129.723 2.72753 129.803 2.09653C131.813 0.75636 132.234 0.636212 134.508 0.633934Z" fill="#DDE4E6"/>
</svg>
