<svg width="106" height="56" viewBox="0 0 106 56" fill="none" xmlns="http://www.w3.org/2000/svg">
<path d="M25.9322 0.309734C26.6082 0.305137 27.2842 0.300539 27.9807 0.295803C28.7253 0.29741 29.47 0.299018 30.2372 0.300674C31.41 0.2957 31.41 0.2957 32.6065 0.290624C34.7544 0.283135 36.9021 0.281562 39.0499 0.283203C40.8415 0.283896 42.6332 0.280731 44.4248 0.277619C48.6509 0.270413 52.8771 0.270139 57.1032 0.274059C61.466 0.277979 65.8286 0.269989 70.1914 0.256169C73.9344 0.244747 77.6773 0.240842 81.4203 0.242956C83.6571 0.244134 85.8937 0.242406 88.1304 0.233408C90.6241 0.223752 93.1176 0.229761 95.6114 0.237305C96.3547 0.232345 97.0981 0.227385 97.864 0.222275C98.8807 0.229102 98.8807 0.229102 99.918 0.236067C100.803 0.235904 100.803 0.235904 101.706 0.235738C103.495 0.527304 104.072 0.98723 105.145 2.4256C105.379 3.89144 105.379 3.89144 105.366 5.62495C105.366 6.27438 105.365 6.9238 105.365 7.59291C105.355 8.29256 105.345 8.9922 105.335 9.71305C105.332 10.4304 105.329 11.1478 105.327 11.887C105.316 14.1814 105.291 16.4755 105.266 18.7698C105.257 20.324 105.248 21.8782 105.24 23.4325C105.218 27.2453 105.186 31.0579 105.145 34.8706C104.626 34.8773 104.107 34.884 103.573 34.8909C98.693 34.9543 93.8135 35.0208 88.934 35.0908C86.4252 35.1267 83.9164 35.1613 81.4075 35.1933C78.9882 35.2242 76.569 35.2582 74.1498 35.2943C73.2248 35.3076 72.2999 35.3197 71.3749 35.3307C70.0836 35.3463 68.7924 35.3662 67.5011 35.3863C66.3966 35.4014 66.3966 35.4014 65.2698 35.4168C63.6579 35.3336 63.6579 35.3336 62.9663 36.1684C62.9396 38.099 62.9268 40.0271 62.9435 41.9578C62.1273 44.5617 61.0989 45.0561 58.7762 46.342C57.9594 46.7666 57.9594 46.7666 57.1262 47.1997C56.501 47.5438 55.8758 47.8879 55.2316 48.2424C53.1304 49.3915 51.0143 50.5084 48.8933 51.6203C48.1701 52.008 47.447 52.3957 46.702 52.7952C46.0039 53.1612 45.3059 53.5271 44.5867 53.9042C43.9571 54.2369 43.3275 54.5697 42.6788 54.9125C40.8479 55.6581 39.6133 55.7873 37.6592 55.6354C38.0089 52.6517 38.805 50.53 40.2953 47.9297C40.6508 47.3024 41.0063 46.675 41.3726 46.0286C41.7829 45.3235 41.7829 45.3235 42.2015 44.6041C41.1736 43.5762 40.0749 43.8126 38.6503 43.7499C38.0668 43.7227 37.4834 43.6955 36.8823 43.6675C36.2687 43.642 35.6552 43.6165 35.023 43.5902C34.407 43.5622 33.7909 43.5342 33.1562 43.5053C31.6291 43.4362 30.1019 43.37 28.5746 43.3063C28.5102 43.9989 28.4458 44.6915 28.3794 45.4051C27.6135 49.5299 24.9379 51.9689 21.5584 54.2971C16.4244 56.0084 12.0827 56.0175 7.16088 53.6887C3.62205 51.678 1.95745 48.3607 0.671883 44.6041C0.0238029 40.576 0.339498 36.9928 2.40059 33.4334C4.69683 30.365 7.40333 28.27 11.0543 27.0838C12.8185 26.9114 12.8185 26.9114 14.6232 26.9216C15.2188 26.9182 15.8144 26.9149 16.428 26.9114C18.3122 27.0955 19.7021 27.6495 21.4367 28.3816C21.4299 27.5825 21.4231 26.7833 21.4161 25.96C21.3926 23.002 21.3777 20.0441 21.3654 17.0861C21.3589 15.8045 21.35 14.523 21.3388 13.2414C21.3231 11.402 21.3157 9.56274 21.3099 7.72326C21.3032 7.14801 21.2965 6.57276 21.2896 5.98007C21.2894 4.57809 21.357 3.17642 21.4367 1.7767C23.0831 0.130318 23.6506 0.314889 25.9322 0.309734Z" fill="#48909C"/>
</svg>
