<svg width="31" height="48" viewBox="0 0 31 48" fill="none" xmlns="http://www.w3.org/2000/svg">
<path d="M21.3383 0.354915C21.9966 0.358679 22.6549 0.362443 23.3332 0.366321C28.2037 0.447388 28.2037 0.447388 29.6929 1.93661C30.0142 4.82283 30.017 7.71916 30.0403 10.621C30.0577 12.0578 30.1062 13.4913 30.1555 14.9273C30.2976 22.6451 30.2976 22.6451 27.5206 25.8395C26.7507 26.5464 25.9615 27.2332 25.1506 27.8926C24.4959 28.5357 23.845 29.1828 23.2039 29.8393C22.5615 29.5181 22.5615 29.5181 21.9061 29.1904C21.4955 27.5656 21.4955 27.5656 21.1761 25.5809C21.0673 24.9243 20.9586 24.2676 20.8466 23.5911C20.7679 23.0834 20.6893 22.5756 20.6083 22.0525C19.0023 22.3737 19.0023 22.3737 17.3638 22.7014C17.1497 24.8428 16.9355 26.9842 16.7149 29.1904C14.7682 26.5948 14.7682 26.5948 13.8354 24.8103C13.5008 24.3285 13.1662 23.8467 12.8215 23.3503C11.9649 23.3503 11.1084 23.3503 10.2259 23.3503C10.5796 26.1802 11.3234 28.5735 12.4185 31.1827C12.8215 32.4349 12.8215 32.4349 12.8215 35.0305C11.2398 36.1255 11.2398 36.1255 9.57699 36.9772C8.66513 37.7527 8.66513 37.7527 8.68475 39.9784C8.69659 43.2573 10.1192 44.8956 12.1726 47.3596C4.6962 45.3641 4.6962 45.3641 1.14129 44.1151C0.544255 37.3819 0.544255 37.3819 1.91693 34.9595C2.92103 33.8596 3.96364 32.8206 5.03469 31.786C7.8563 28.1686 7.96381 25.4547 7.47567 20.9144C6.73003 17.7368 5.17385 15.4365 3.08799 12.9679C3.95625 12.0407 3.95625 12.0407 4.84205 11.0947C5.6093 10.2727 6.37648 9.45055 7.14361 8.62839C7.52421 8.22228 7.9048 7.81618 8.29693 7.39776C8.85528 6.79864 8.85528 6.79864 9.4249 6.18741C9.79515 5.7961 10.1654 5.40479 10.5469 5.00162C11.64 3.81953 11.64 3.81953 12.6441 1.98223C15.14 -0.290705 18.1007 0.249205 21.3383 0.354915Z" fill="#B7D2EA"/>
</svg>
