<svg width="46" height="47" viewBox="0 0 46 47" fill="none" xmlns="http://www.w3.org/2000/svg">
<path d="M27.3371 0.271486C28.7886 0.296197 30.2402 0.31777 31.6918 0.336122C34.335 0.385285 36.9775 0.437172 39.6193 0.538112C40.1467 0.556759 40.6742 0.575406 41.2177 0.594619C42.5862 0.798717 42.5862 0.798717 44.5329 2.09652C44.7976 3.72037 44.7976 3.72037 44.826 5.79506C44.8405 6.57068 44.855 7.34631 44.87 8.14544C44.8763 9.4097 44.8763 9.4097 44.8827 10.6995C44.8906 11.5727 44.8987 12.4458 44.907 13.319C44.9216 15.153 44.9278 16.9868 44.9293 18.8209C44.9327 21.1604 44.9659 23.4983 45.0068 25.8374C45.0335 27.6434 45.0394 29.4491 45.0397 31.2553C45.0448 32.5335 45.0709 33.8116 45.0975 35.0895C45.0613 39.8839 44.5488 42.6204 41.093 46.0557C39.9906 46.8706 39.9906 46.8706 38.6928 46.8706C38.2115 36.0562 37.9715 25.2807 38.068 14.4573C38.0762 13.1932 38.0762 13.1932 38.0845 11.9035C38.092 11.1526 38.0995 10.4017 38.1073 9.6281C38.2377 7.98326 38.2377 7.98326 37.395 7.28772C32.2223 6.58021 25.6102 5.77738 21.0331 8.55256C19.5828 10.217 18.4341 11.8978 17.2791 13.7767C16.4187 14.7929 15.5413 15.795 14.643 16.7779C14.0071 17.5075 13.3715 18.2373 12.7368 18.9679C10.9441 18.6287 9.28072 18.2485 7.54562 17.6701C7.54562 17.0277 7.54562 16.3853 7.54562 15.7234C5.27097 14.4496 2.91668 13.8033 0.407715 13.1278C1.22932 11.9179 2.08238 10.7585 2.99064 9.6113C4.33114 7.93985 4.33114 7.93985 5.53729 6.09669C11.3155 -1.22435 18.6762 -0.059619 27.3371 0.271486Z" fill="#E2EFE0"/>
</svg>
