<svg width="21" height="29" viewBox="0 0 21 29" fill="none" xmlns="http://www.w3.org/2000/svg">
<path d="M9.95012 0.297012C11.2023 0.520072 11.2023 0.520072 12.5457 0.945912C13.2757 2.56816 13.2757 2.56816 13.8435 4.19041C15.7621 5.1497 17.5697 4.87846 19.6836 4.83931C19.4428 6.92605 18.9424 7.52722 17.4125 9.05716C14.896 11.8565 15.2051 15.5319 15.1413 19.1151C16.8544 19.5434 18.5675 19.9717 20.3325 20.4129C20.6164 21.7918 20.6164 21.7918 20.3325 23.6574C18.1136 26.1507 15.8057 28.0213 12.3936 28.3315C8.65842 28.4011 6.06781 28.1413 2.81221 26.253C1.23052 24.6713 1.23052 24.6713 0.216614 23.0085C0.216614 22.152 0.216614 21.2954 0.216614 20.4129C2.46505 20.0917 2.46505 20.0917 4.75891 19.764C4.82935 18.3182 4.8795 16.8714 4.92114 15.4245C4.95125 14.619 4.98137 13.8135 5.01239 12.9835C4.71759 10.3038 3.9188 9.40811 2.16331 7.43491C2.16331 6.7925 2.16331 6.15009 2.16331 5.48821C3.18716 5.46814 3.18716 5.46814 4.23168 5.44766C7.24312 4.70714 7.82207 3.78958 9.40007 1.26783C9.58159 0.947459 9.7631 0.62709 9.95012 0.297012Z" fill="#CC7660"/>
</svg>
