<svg width="82" height="18" viewBox="0 0 82 18" fill="none" xmlns="http://www.w3.org/2000/svg">
<path d="M2.18275 0.681885C5.84314 2.68007 9.43511 4.75962 12.9809 6.95543C15.7138 8.49837 17.8445 9.29795 21.0008 9.11759C21.215 9.54586 21.4291 9.97413 21.6497 10.4154C24.5968 11.5405 27.6709 12.2721 30.7344 13.011C31.1536 13.1127 31.5729 13.2145 32.0049 13.3193C44.6711 16.2376 58.0431 15.2627 70.918 14.4533C74.6109 14.2302 78.2988 14.249 81.9975 14.3088C81.7833 14.7371 81.5692 15.1653 81.3486 15.6066C79.2697 16.0957 77.1071 16.1695 74.9812 16.3366C74.3049 16.3908 73.6285 16.4449 72.9317 16.5007C66.5596 16.9496 60.1959 17.0464 53.8109 17.0666C53.3268 17.07 52.8427 17.0733 52.3439 17.0768C33.2427 17.1812 16.6811 12.9506 0.884949 1.97968C1.31322 1.55141 1.7415 1.12314 2.18275 0.681885Z" fill="#93BAE6"/>
</svg>
