<svg width="13" height="23" viewBox="0 0 13 23" fill="none" xmlns="http://www.w3.org/2000/svg">
<path d="M8.92809 0.945923C9.35636 0.945923 9.78464 0.945923 10.2259 0.945923C10.6641 1.97098 11.0954 2.99899 11.5237 4.0282C11.7646 4.60035 12.0055 5.17249 12.2537 5.76198C12.8215 7.43492 12.8215 7.43492 12.8215 10.0305C11.2398 11.1255 11.2398 11.1255 9.57699 11.9772C8.66513 12.7527 8.66513 12.7527 8.68475 14.9784C8.69659 18.2573 10.1192 19.8956 12.1726 22.3596C4.6962 20.3641 4.6962 20.3641 1.14129 19.1151C0.544255 12.3819 0.544255 12.3819 1.91693 9.95955C2.58804 9.22436 3.28322 8.51043 4.0005 7.82021C5.09695 6.72377 5.75917 5.67174 6.49471 4.31209C7.63029 2.24372 7.63029 2.24372 8.92809 0.945923Z" fill="#A9C6E6"/>
</svg>
