<svg width="12" height="10" viewBox="0 0 12 10" fill="none" xmlns="http://www.w3.org/2000/svg">
<path d="M11.1946 0.403625C11.4087 1.04604 11.6228 1.68845 11.8435 2.35033C11.0323 3.76979 11.0323 3.76979 9.89677 4.94592C9.25436 4.94592 8.61195 4.94592 7.95007 4.94592C6.54827 6.83232 6.54827 6.83232 5.35447 8.83932C4.70557 9.48822 4.70557 9.48822 2.39386 9.52878C1.65777 9.5154 0.921671 9.50201 0.163269 9.48822C0.163269 9.27409 0.163269 9.05995 0.163269 8.83932C0.778913 8.65195 1.39456 8.46458 2.02886 8.27154C4.09049 7.69191 4.09049 7.69191 5.35447 6.24372C5.6125 4.95357 5.8332 3.65497 6.00337 2.35033C6.73947 2.14957 7.47556 1.94882 8.23397 1.74198C10.4079 1.29311 10.4079 1.29311 11.1946 0.403625Z" fill="#F0DC96"/>
</svg>
