<svg width="49" height="50" viewBox="0 0 49 50" fill="none" xmlns="http://www.w3.org/2000/svg">
<path d="M45.5536 2.81506C47.0542 4.31564 47.0542 4.31564 47.3786 6.34345C47.0542 8.20904 47.0542 8.20904 45.7564 9.50684C45.7417 11.0964 45.7417 11.0964 45.9997 12.8325C46.0716 13.423 46.1436 14.0136 46.2177 14.622C46.2796 15.0754 46.3415 15.5287 46.4053 15.9958C47.6901 16.317 47.6901 16.317 49.0009 16.6447C48.6797 18.2508 48.6797 18.2508 48.352 19.8892C47.9237 19.8892 47.4954 19.8892 47.0542 19.8892C46.9906 20.2807 46.927 20.6722 46.8615 21.0755C46.417 23.4514 46.0499 25.3053 44.6613 27.311C42.7392 28.6098 40.8659 29.1041 38.6185 29.6227C38.6954 30.0778 38.7724 30.5328 38.8517 31.0017C39.4477 35.3881 39.3303 38.3209 36.6718 41.9518C35.0141 43.7238 34.2564 43.8792 31.805 44.1419C28.9794 44.6465 28.5498 45.5136 26.9383 47.7919C24.0556 49.6021 21.1492 49.4114 17.8537 49.0897C14.692 48.3506 12.0033 47.2584 10.0669 44.5474C9.58018 42.4385 9.58018 42.4385 9.41796 40.654C8.97212 40.5436 8.52628 40.4332 8.06693 40.3195C7.48223 40.1622 6.89754 40.0049 6.29513 39.8429C5.71545 39.6924 5.13578 39.5418 4.53854 39.3867C2.62317 38.5783 1.97503 37.9264 0.982259 36.1117C0.413386 32.9599 0.518762 30.3798 2.19895 27.6355C4.0214 25.9738 4.55882 25.7469 7.0657 25.6077C9.31568 25.7241 10.0971 26.0689 12.0136 27.0271C13.1011 26.8437 14.1843 26.63 15.2581 26.3782C15.2898 25.6104 15.3216 24.8425 15.3544 24.0513C16.083 7.96118 16.083 7.96118 20.4493 3.66674C26.7232 -0.174456 39.0179 -0.856523 45.5536 2.81506Z" fill="#F5BE3F"/>
</svg>
