<svg width="12" height="6" viewBox="0 0 12 6" fill="none" xmlns="http://www.w3.org/2000/svg">
<path d="M1.40781 0.679398C1.83609 0.893535 2.26436 1.10767 2.70561 1.3283C4.13792 1.37432 5.57159 1.3829 7.00457 1.36885C8.16141 1.36007 8.16141 1.36007 9.34163 1.35111C10.2325 1.33982 10.2325 1.33982 11.1413 1.3283C11.1413 2.18485 11.1413 3.04139 11.1413 3.9239C10.3433 3.97158 10.3433 3.97158 9.5292 4.02022C8.82991 4.06873 8.13062 4.11725 7.41014 4.16724C6.37124 4.23499 6.37124 4.23499 5.31135 4.30411C3.48295 4.55516 2.32728 4.93415 0.758911 5.8706C0.973048 4.1575 1.18719 2.44441 1.40781 0.679398Z" fill="#A2635D"/>
</svg>
