<svg width="46" height="103" viewBox="0 0 46 103" fill="none" xmlns="http://www.w3.org/2000/svg">
<path d="M23.3383 0.354915C23.9966 0.358679 24.6549 0.362443 25.3332 0.366321C30.2037 0.447388 30.2037 0.447388 31.6929 1.93661C31.849 3.57076 31.849 3.57076 31.8402 5.65796C31.8401 6.43735 31.8401 7.21674 31.84 8.01975C31.8333 8.86468 31.8266 9.70962 31.8197 10.5802C31.8172 11.4512 31.8154 12.3223 31.8141 13.1933C31.8091 15.4869 31.7964 17.7805 31.782 20.074C31.7688 22.4141 31.7628 24.7541 31.7563 27.0942C31.7424 31.6864 31.7202 36.2785 31.6929 40.8706C32.1747 40.3754 32.6565 39.8802 33.1529 39.37C34.5701 37.9851 35.9409 36.8395 37.533 35.6794C37.5296 36.1734 37.5262 36.6673 37.5227 37.1762C37.4952 41.8447 37.4927 46.5123 37.5179 51.1808C37.5299 53.5807 37.5325 55.9798 37.5131 58.3797C37.4946 60.6984 37.5016 63.0158 37.5257 65.3345C37.5306 66.2164 37.5264 67.0984 37.5129 67.9802C37.3288 73.0043 37.3288 73.0043 39.3352 77.4173C40.695 78.6362 40.695 78.6362 42.1336 79.575C44.1807 81.0259 44.6772 82.626 45.3198 84.9958C45.8966 90.0962 44.9958 93.4428 42.2781 97.771C39.3112 100.738 36.2975 102.018 32.0985 102.232C28.2602 102.088 25.0858 100.839 21.9594 98.6227C18.8161 94.9759 18.3843 90.7847 18.4614 86.1136C19.0067 82.3131 21.2702 79.8449 23.9061 77.209C16.1972 76.9949 8.48825 76.7807 0.545715 76.5601C3.40692 73.222 6.30773 69.9671 9.30586 66.7582C9.62707 66.4127 9.94828 66.0672 10.2792 65.7113C10.6053 65.3688 10.9315 65.0263 11.2675 64.6735C12.259 63.5937 12.259 63.5937 13.0652 62.3171C14.4625 60.3042 15.3658 59.1982 17.8246 58.6815C19.8438 58.5927 21.8072 58.6429 23.825 58.7559C24.5193 58.7764 25.2135 58.7969 25.9289 58.818C27.6358 58.8714 29.339 58.9459 31.044 59.0398C31.2407 53.641 31.2171 49.162 29.5105 44.0036C28.9998 41.7351 29.1571 39.7399 29.3001 37.4233C29.5041 34.3589 29.5041 34.3589 27.9947 31.8925C27.0587 31.3111 26.1095 30.7503 25.1481 30.2119C23.0103 28.4536 23.0183 26.1069 22.7097 23.477C22.6762 23.007 22.6428 22.5369 22.6083 22.0525C21.0023 22.3737 21.0023 22.3737 19.3638 22.7014C19.1497 24.8428 18.9355 26.9842 18.7149 29.1904C16.7682 26.5948 16.7682 26.5948 15.8354 24.8103C15.5008 24.3285 15.1662 23.8467 14.8215 23.3503C13.965 23.3503 13.1084 23.3503 12.2259 23.3503C12.5797 26.1802 13.3234 28.5735 14.4185 31.1827C14.8215 32.4349 14.8215 32.4349 14.8215 35.0305C13.2398 36.1255 13.2398 36.1255 11.577 36.9772C10.6652 37.7527 10.6652 37.7527 10.6848 39.9784C10.6966 43.2573 12.1193 44.8956 14.1726 47.3596C6.69622 45.3641 6.69622 45.3641 3.14132 44.1151C2.54428 37.3819 2.54428 37.3819 3.91695 34.9595C4.92106 33.8596 5.96367 32.8206 7.03472 31.786C9.85633 28.1686 9.96384 25.4547 9.47569 20.9144C8.73005 17.7368 7.17388 15.4365 5.08802 12.9679C5.95627 12.0407 5.95627 12.0407 6.84207 11.0947C7.60932 10.2727 8.37651 9.45055 9.14364 8.62839C9.52423 8.22228 9.90483 7.81617 10.297 7.39776C10.8553 6.79864 10.8553 6.79864 11.4249 6.18741C11.7952 5.7961 12.1654 5.40479 12.5469 5.00162C13.64 3.81953 13.64 3.81953 14.6441 1.98223C17.14 -0.290705 20.1007 0.249205 23.3383 0.354915Z" fill="#D6E5E0"/>
</svg>
