<svg width="23" height="38" viewBox="0 0 23 38" fill="none" xmlns="http://www.w3.org/2000/svg">
<path d="M11.0266 0.0119324C11.8096 0.0320077 11.8096 0.0320077 12.6083 0.0524886C13.7778 2.53771 14.0334 4.45282 13.9061 7.19039C14.4481 7.43129 14.4481 7.43129 15.0011 7.67706C16.8464 8.67449 18.2453 9.60269 19.7462 11.0838C19.9946 13.0736 19.9946 13.0736 19.8273 15.3422C19.707 18.4083 19.7821 20.8538 20.7196 23.7779C21.9452 27.663 22.935 33.2578 21.044 37.0398C16.7613 37.0398 12.4785 37.0398 8.06601 37.0398C6.11931 28.1985 6.11931 28.1985 6.11931 26.0085C5.75796 25.8747 5.3966 25.7408 5.02429 25.6029C2.94882 24.3689 1.44514 22.9187 0.279213 20.8173C-0.162759 18.853 -0.0207792 17.6927 0.279213 15.6261C1.45534 14.0038 1.45534 14.0038 2.87481 13.0305C3.51722 13.0305 4.15963 13.0305 4.82151 13.0305C4.4589 12.1033 4.4589 12.1033 4.08897 11.1573C3.77845 10.3354 3.46839 9.51323 3.15871 8.69097C2.99852 8.28486 2.83834 7.87876 2.6733 7.46034C1.74027 4.95035 1.40457 3.27363 2.22591 0.701389C3.68594 0.741945 3.68594 0.741945 5.47041 1.35029C6.55959 2.79789 7.26137 4.25351 8.06601 5.89259C8.1597 5.04942 8.25338 4.20626 8.34991 3.33755C8.71315 0.0683585 8.71315 0.0683585 11.0266 0.0119324Z" fill="#C0BD9F"/>
</svg>
