<svg width="8" height="26" viewBox="0 0 8 26" fill="none" xmlns="http://www.w3.org/2000/svg">
<path d="M6.69294 -0.000793457C6.8227 2.75671 6.94123 5.5146 7.05795 8.27268C7.09433 9.04307 7.13072 9.81347 7.16821 10.6072C7.37147 15.5667 7.23685 20.372 6.69294 25.3063C4.6962 23.3096 4.43636 20.8843 4.09734 18.1684C4.1309 15.8114 4.21588 13.4716 4.36856 11.1192C4.29409 8.9474 4.29409 8.9474 2.46749 7.51479C1.93466 7.17602 1.40182 6.83725 0.852844 6.48821C1.22849 4.35492 1.85753 3.28477 3.40789 1.78368C3.74833 1.44575 4.08878 1.10781 4.43954 0.759636C5.39514 -0.000793457 5.39514 -0.000793457 6.69294 -0.000793457Z" fill="#CCE7D9"/>
</svg>
