<svg width="22" height="14" viewBox="0 0 22 14" fill="none" xmlns="http://www.w3.org/2000/svg">
<path d="M6.21669 0.0618286C6.61819 0.965219 6.61819 0.965219 7.02781 1.88686C8.29837 4.20109 9.34665 5.43007 11.8667 6.27201C13.8404 6.64187 15.7281 6.61145 17.7347 6.59139C18.4942 6.58553 19.2537 6.57968 20.0362 6.57364C20.6151 6.56612 21.1939 6.55859 21.7903 6.55083C20.7288 9.05988 19.5692 11.5294 17.248 13.0398C14.357 13.5275 11.5307 13.4057 8.60951 13.2832C7.81946 13.2656 7.02941 13.248 6.21542 13.2299C4.26865 13.1841 2.32247 13.1143 0.376587 13.0398C0.376587 9.18537 0.376587 5.3309 0.376587 1.35963C4.26999 0.0618286 4.26999 0.0618286 6.21669 0.0618286Z" fill="#FCDFDC"/>
</svg>
