<svg width="19" height="10" viewBox="0 0 19 10" fill="none" xmlns="http://www.w3.org/2000/svg">
<path d="M0.567688 0.951843C1.50235 1.55732 2.4347 2.16636 3.36607 2.77687C3.88552 3.11565 4.40497 3.45442 4.94016 3.80345C6.22852 4.71799 7.28328 5.63753 8.35449 6.79194C10.8441 5.91639 12.6708 4.79495 14.7218 3.14188C15.2346 2.73201 15.7473 2.32214 16.2756 1.89985C16.6596 1.587 17.0435 1.27416 17.4391 0.951843C17.8674 1.38012 18.2956 1.80839 18.7369 2.24964C14.24 5.7829 14.24 5.7829 9.65229 9.38754C7.37355 8.24818 5.63967 7.09679 3.64996 5.5347C3.07112 5.08719 2.49229 4.63967 1.89591 4.1786C1.45759 3.75618 1.01928 3.33376 0.567688 2.89854C0.567688 2.25613 0.567688 1.61372 0.567688 0.951843Z" fill="#CDE4D0"/>
</svg>
