<svg width="20" height="19" viewBox="0 0 20 19" fill="none" xmlns="http://www.w3.org/2000/svg">
<path d="M16.4924 0.319016C17.3489 0.74729 18.2055 1.17556 19.088 1.61682C18.6965 2.0476 18.3051 2.47838 17.9017 2.92222C17.3831 3.4952 16.8645 4.06819 16.3302 4.65854C15.8182 5.22315 15.3063 5.78777 14.7789 6.3695C11.9478 9.58026 10.506 11.7472 9.35449 15.8926C8.2162 17.6001 7.48467 17.8148 5.50165 18.4477C3.51439 18.4882 3.51439 18.4882 1.97325 17.5554C0.520041 15.2638 0.364026 13.3489 0.918791 10.7014C2.09492 9.32251 2.09492 9.32251 3.51439 8.10582C3.82221 7.46341 4.13004 6.821 4.44719 6.15912C5.77044 3.61847 7.45888 2.24017 10.0034 0.967916C11.2201 0.881734 11.2201 0.881734 12.599 0.886803C13.2816 0.884294 13.2816 0.884294 13.9779 0.881734C15.1946 0.967916 15.1946 0.967916 16.4924 1.61682C16.4924 1.18854 16.4924 0.760268 16.4924 0.319016Z" fill="#B9B393"/>
</svg>
