<svg width="21" height="33" viewBox="0 0 21 33" fill="none" xmlns="http://www.w3.org/2000/svg">
<path d="M15.3013 1.1278C17.2885 2.30393 17.2885 2.30393 18.5458 3.7234C18.5458 4.36581 18.5458 5.00822 18.5458 5.6701C19.1882 5.6701 19.8306 5.6701 20.4925 5.6701C20.4925 6.31251 20.4925 6.95492 20.4925 7.6168C20.0692 7.58669 19.6459 7.55657 19.2099 7.52555C16.4031 7.40963 14.4451 7.4168 11.854 8.59015C9.98652 10.3273 8.81357 12.027 7.56515 14.2325C6.86555 15.4036 6.86555 15.4036 5.56775 16.7014C5.38398 18.6004 5.26423 20.0456 5.56775 21.8926C6.68941 23.2849 6.68941 23.2849 8.16335 24.4882C9.10528 25.9651 9.91735 27.4924 10.759 29.0305C11.0802 29.3517 11.0802 29.3517 11.4079 29.6794C11.4342 30.7606 11.4356 31.8428 11.4079 32.9239C11.1937 32.4956 10.9796 32.0674 10.759 31.6261C9.11897 31.2007 9.11897 31.2007 7.51445 30.9772C7.51445 30.3348 7.51445 29.6924 7.51445 29.0305C7.08618 29.0305 6.6579 29.0305 6.21665 29.0305C6.21665 29.6729 6.21665 30.3153 6.21665 30.9772C4.28942 30.7631 2.36219 30.5489 0.376554 30.3283C0.319314 27.7598 0.285192 25.1915 0.254885 22.6226C0.238574 21.9032 0.222262 21.1839 0.205457 20.4427C0.155613 14.7938 0.460072 9.00023 4.55385 4.69675C4.92775 4.28855 5.30165 3.88035 5.68689 3.45978C8.6068 0.897798 11.534 0.571427 15.3013 1.1278Z" fill="#789694"/>
</svg>
