<svg width="21" height="15" viewBox="0 0 21 15" fill="none" xmlns="http://www.w3.org/2000/svg">
<path d="M10.3324 0.412933C13.2133 0.850649 15.6389 1.44606 18.1192 3.00853C19.6986 6.54209 20.0659 10.1947 20.0659 14.0398C17.9263 14.7531 16.348 14.7627 14.0966 14.7521C13.3124 14.75 12.5282 14.7479 11.7202 14.7458C10.4912 14.7376 10.4912 14.7376 9.23742 14.7293C7.99714 14.7249 7.99714 14.7249 6.7318 14.7204C4.68748 14.7128 2.64323 14.7021 0.598938 14.6887C0.864936 14.3441 1.13093 13.9995 1.40499 13.6444C1.75464 13.186 2.10428 12.7276 2.46453 12.2554C2.81083 11.8037 3.15712 11.352 3.51392 10.8866C4.51654 9.54645 4.51654 9.54645 5.14377 8.12623C5.79014 6.90193 5.79014 6.90193 7.77739 5.32024C9.85089 3.51145 9.9825 3.00074 10.3324 0.412933Z" fill="#D1D0C5"/>
</svg>
