<svg width="24" height="21" viewBox="0 0 24 21" fill="none" xmlns="http://www.w3.org/2000/svg">
<path d="M13.5858 1.24144C17.4777 2.86422 21.3176 5.18984 23.0404 9.15245C22.7646 12.6004 21.039 15.1257 18.4728 17.4006C14.657 20.2097 11.2906 20.8908 6.65571 20.2649C4.5558 19.3817 2.71794 18.2617 0.81561 17.0204C0.796729 14.9114 0.785221 12.8026 0.775054 10.6936C0.769617 10.0963 0.76418 9.4991 0.758578 8.88376C0.756487 8.30659 0.754395 7.72943 0.752241 7.13477C0.748843 6.60466 0.745445 6.07454 0.741943 5.52837C0.814716 4.0604 0.978021 2.83388 1.46451 1.44676C4.82434 -0.233156 10.0358 0.335829 13.5858 1.24144Z" fill="#FEF7E6"/>
</svg>
