<svg width="8" height="17" viewBox="0 0 8 17" fill="none" xmlns="http://www.w3.org/2000/svg">
<path d="M1.25721 0.297012C1.47134 0.297012 1.68548 0.297012 1.90611 0.297012C1.90611 1.58183 1.90611 2.86666 1.90611 4.19041C2.26746 4.35102 2.62882 4.51162 3.00113 4.67709C4.88012 5.69276 6.26494 6.52025 7.74621 8.08381C8.02976 11.0611 7.82418 13.612 7.09731 16.5195C6.14951 14.8016 5.79951 13.9924 5.79951 11.9772C5.58537 12.6196 5.37123 13.262 5.15061 13.9239C4.29406 13.9239 3.43751 13.9239 2.55501 13.9239C2.50733 13.3028 2.50733 13.3028 2.45869 12.6692C2.41017 12.133 2.36166 11.5968 2.31167 11.0444C2.2665 10.5099 2.22133 9.97541 2.17479 9.4247C2.04179 8.76096 2.04179 8.76096 1.90611 8.08381C1.47783 7.86968 1.04956 7.65554 0.608307 7.43491C1.25072 6.57837 1.89313 5.72182 2.55501 4.83931C2.12673 4.83931 1.69846 4.83931 1.25721 4.83931C1.25721 3.34035 1.25721 1.84139 1.25721 0.297012Z" fill="#CACDB6"/>
</svg>
