<svg width="67" height="89" viewBox="0 0 67 89" fill="none" xmlns="http://www.w3.org/2000/svg">
<path d="M31.3012 1.1278C33.2884 2.30393 33.2884 2.30393 34.5457 3.7234C34.5457 4.36581 34.5457 5.00822 34.5457 5.6701C35.2282 5.73033 35.2282 5.73033 35.9246 5.79177C38.9404 6.64407 40.9418 8.50845 42.7279 11.0489C44.4015 14.3114 44.6328 17.6246 44.2791 21.2437C42.9458 24.2829 41.2061 27.1499 38.6393 29.3017C37.341 30.8713 37.4515 32.3444 37.344 34.3434C37.3014 35.0485 37.2587 35.7537 37.2148 36.4802C37.1905 37.0197 37.1662 37.5592 37.1413 38.1151C38.3978 38.4424 39.6552 38.7662 40.913 39.0885C41.6131 39.2691 42.3132 39.4498 43.0346 39.636C44.9211 40.133 44.9211 40.133 46.8747 40.0618C46.4465 39.6335 46.0182 39.2053 45.5769 38.764C43.7874 36.0797 43.8743 34.8142 44.2791 31.6261C45.4553 30.0039 45.4553 30.0039 46.8747 29.0305C47.5172 29.0305 48.1596 29.0305 48.8214 29.0305C48.5797 28.4123 48.338 27.7942 48.0889 27.1573C47.7784 26.3354 47.4683 25.5132 47.1586 24.691C46.9184 24.0818 46.9184 24.0818 46.6732 23.4604C45.7402 20.9504 45.4045 19.2736 46.2258 16.7014C47.6859 16.742 47.6859 16.742 49.4703 17.3503C50.5595 18.7979 51.2613 20.2535 52.0659 21.8926C52.1596 21.0494 52.2533 20.2063 52.3498 19.3376C52.6337 16.7825 52.6337 16.7825 53.3637 16.0525C54.4449 16.0261 55.5271 16.0248 56.6082 16.0525C57.7778 18.5377 58.0334 20.4528 57.906 23.1904C58.4481 23.4313 58.4481 23.4313 59.0011 23.6771C60.8463 24.6745 62.2452 25.6027 63.7461 27.0838C63.9946 29.0736 63.9946 29.0736 63.8273 31.3422C63.7069 34.4083 63.7821 36.8538 64.7195 39.7779C65.9452 43.6631 66.9349 49.2578 65.0439 53.0398C64.6326 53.0153 64.2213 52.9908 63.7975 52.9655C55.2268 52.2841 55.2268 52.2841 47.5997 55.3819C45.9092 57.1086 44.4922 59.0151 43.1271 61.0053C41.8912 62.7458 40.4602 64.252 39.0068 65.815C38.5501 66.3261 38.0934 66.8372 37.6229 67.3638C36.8358 68.2337 36.0241 69.0817 35.1946 69.9112C42.9035 70.1253 50.6124 70.3395 58.5549 70.5601C57.2701 72.2732 55.9853 73.9863 54.6615 75.7513C53.3969 78.2806 53.2009 79.1772 53.2421 81.8753C53.2463 82.4767 53.2504 83.0781 53.2548 83.6978C53.3606 85.4327 53.6556 87.0313 54.0126 88.7293C47.2666 88.7593 40.5205 88.7824 33.7744 88.7965C30.6422 88.8033 27.51 88.8125 24.3778 88.8272C21.3569 88.8413 18.336 88.8491 15.3151 88.8524C14.1606 88.8548 13.0062 88.8595 11.8518 88.8665C10.2389 88.8759 8.62623 88.8772 7.01335 88.8766C6.5326 88.8813 6.05185 88.886 5.55653 88.8908C2.24867 88.8773 2.24867 88.8773 0.802854 87.4315C0.681317 85.7643 0.636901 84.1684 0.653303 82.5014C0.653749 81.7719 0.653749 81.7719 0.654204 81.0277C0.656165 79.9995 0.661282 78.9713 0.669304 77.9431C0.681155 76.3637 0.682613 74.7846 0.682453 73.2051C0.685642 72.2077 0.689424 71.2103 0.69386 70.2128C0.694582 69.7377 0.695304 69.2625 0.696048 68.7729C0.727548 65.4442 0.727548 65.4442 1.45175 64.72C2.34623 64.6264 3.245 64.5728 4.14368 64.5375C4.68906 64.5132 5.23444 64.489 5.79634 64.464C6.37016 64.4414 6.94398 64.4188 7.53519 64.3956C8.66242 64.3508 9.78956 64.3036 10.9166 64.2536C11.4188 64.2339 11.921 64.2143 12.4384 64.194C13.9083 64.111 13.9083 64.111 15.7276 63.4222C15.7865 62.4498 15.7865 62.4498 15.8467 61.4578C15.9011 60.6205 15.9554 59.7831 16.0114 58.9205C16.0641 58.0848 16.1168 57.2492 16.1711 56.3882C16.3765 54.3376 16.3765 54.3376 17.0254 53.6887C18.121 53.6654 19.2175 53.6804 20.3129 53.7115C27.9876 54.2488 27.9876 54.2488 34.7865 51.5544C36.035 49.9279 36.9957 48.4377 37.7902 46.5508C37.1477 46.7649 36.5053 46.9791 35.8435 47.1997C31.7004 47.5763 28.4343 47.3539 24.8122 45.253C23.2305 43.6713 23.2305 43.6713 22.2166 42.0085C22.2166 41.152 22.2166 40.2954 22.2166 39.4129C23.7155 39.1988 25.2145 38.9846 26.7589 38.764C26.7589 36.4085 26.7589 34.053 26.7589 31.6261C25.6882 31.412 24.6175 31.1978 23.5144 30.9772C23.5144 30.3348 23.5144 29.6924 23.5144 29.0305C23.0861 29.0305 22.6578 29.0305 22.2166 29.0305C22.2166 29.6729 22.2166 30.3153 22.2166 30.9772C20.2893 30.7631 18.3621 30.5489 16.3765 30.3283C16.3192 27.7598 16.2851 25.1915 16.2548 22.6226C16.2385 21.9032 16.2222 21.1839 16.2054 20.4427C16.1555 14.7938 16.46 9.00023 20.5537 4.69675C21.1146 4.08445 21.1146 4.08445 21.6868 3.45978C24.6067 0.897798 27.5339 0.571427 31.3012 1.1278Z" fill="#C8E0D9"/>
</svg>
