<svg width="273" height="129" viewBox="0 0 273 129" fill="none" xmlns="http://www.w3.org/2000/svg">
<path d="M24.6196 0.640116C25.1441 0.82665 25.6686 1.01318 26.2089 1.20537C26.6079 1.35343 27.0069 1.50148 27.418 1.65402C27.4991 6.683 27.4991 6.683 26.7691 8.14302C24.0194 20.843 24.9023 33.437 28.7158 45.7792C28.95 46.5714 29.1842 47.3635 29.4255 48.1797C31.3761 53.9547 34.6619 58.5973 38.4493 63.2995C38.7289 63.647 39.0085 63.9944 39.2966 64.3524C45.7645 72.2217 54.2198 78.4394 63.7564 82.1176C65.5537 82.2752 65.5537 82.2752 67.0009 82.1176C67.2151 82.5459 67.4292 82.9742 67.6498 83.4154C70.5969 84.5405 73.671 85.2721 76.7344 86.011C77.1537 86.1128 77.573 86.2145 78.005 86.3193C90.2948 89.151 108.531 90.7875 120.292 85.6866C120.679 85.5217 121.067 85.3568 121.466 85.1869C122.787 84.6151 124.095 84.0193 125.402 83.4154C125.941 83.1664 126.48 82.9173 127.036 82.6607C130.616 80.9966 134.179 79.2991 137.731 77.5753C139.488 79.3322 139.743 80.9903 140.408 83.3749C140.752 84.5882 140.752 84.5882 141.102 85.826C141.624 87.9577 141.624 87.9577 141.624 89.9044C142.695 89.6903 143.766 89.4762 144.869 89.2555C145.274 99.8217 144.815 109.25 137.731 117.807C133.873 121.595 130.465 123.344 125.402 125.594C173.797 125.808 222.192 126.022 272.053 126.243C272.053 126.885 272.053 127.528 272.053 128.19C184.257 128.19 96.461 128.19 6.00431 128.19C5.79017 127.547 5.57603 126.905 5.35541 126.243C15.4198 126.029 25.4843 125.815 35.8537 125.594C33.7123 124.309 31.571 123.024 29.3647 121.701C11.8746 108.506 4.10343 84.4276 1.04662 63.6984C0.209784 57.618 0.00805039 51.5874 0.00198029 45.4548C0.00132679 44.9956 0.000673299 44.5364 0 44.0633C0.0126833 30.8659 1.32273 15.8539 10.7088 5.62854C14.3294 2.26655 19.7563 -1.12196 24.6196 0.640116Z" fill="#5FA1C3"/>
</svg>
