<svg width="18" height="18" viewBox="0 0 18 18" fill="none" xmlns="http://www.w3.org/2000/svg">
<path d="M12.2026 0.197388C14.7704 1.51421 16.3836 3.61137 17.6777 6.19971C17.9956 9.44225 17.6333 11.6038 15.8983 14.3034C14.2588 16.2738 12.4158 17.0347 9.92135 17.4338C6.60017 17.6366 4.70688 16.8044 2.10413 14.6354C0.806334 12.6887 0.806334 12.6887 0.765778 11.1881C1.8269 8.50411 3.7402 7.31563 5.99753 5.55081C5.99753 7.69218 5.99753 9.83355 5.99753 12.0398C6.72025 11.6115 7.44296 11.1833 8.18757 10.742C10.3776 9.44421 10.3776 9.44421 11.8376 9.44421C11.4629 9.06947 11.0882 8.69473 10.7021 8.30864C9.35018 6.95676 7.99831 5.60489 6.64643 4.25301C9.87579 0.424398 9.87579 0.424398 12.2026 0.197388Z" fill="#FE8970"/>
</svg>
